<svg version="1.2" xmlns="http://www.w3.org/2000/svg" viewBox="0 0 912 360" width="912" height="360">
	<defs>
		<clipPath clipPathUnits="userSpaceOnUse" id="cp1">
			<path d="m353.45 61v187.16h-153.45v-187.16z"/>
		</clipPath>
		<clipPath clipPathUnits="userSpaceOnUse" id="cp2">
			<path d="m22.67-6.67h864v322.67h-864z"/>
		</clipPath>
	</defs>
	<style>
		.s0 { fill: #000000 } 
	</style>
	<path class="s0" d="m373.03-64.22c0.11 0.2 0.25 0.45 0.13 0.68-0.11 0.21-0.34 0.1-0.42-0.06q-0.11-0.23-0.32-0.38-0.1-0.07-0.16-0.17c-0.03-0.05-0.01-0.05-0.02-0.05q-0.05-0.01-0.06-0.06v-0.18q0-0.02 0.02-0.03 0 0 0-0.01 0.01-0.01 0.03-0.01 0-0.03 0.04-0.08 0.01-0.03 0.04-0.03c0.09 0 0.29-0.01 0.34 0.06 0.07 0.09 0.18 0.09 0.26 0.16q0.07 0.08 0.12 0.16z"/>
	<g id="Clip-Path" clip-path="url(#cp1)">
		<g>
			<path class="s0" d="m353.39 137.01c-0.14 0.42-0.35 0.9-0.16 1.34 0.13 0.33 0.41 0.67 0.27 1.05-0.1 0.26-0.28 0.5-0.56 0.56-0.25 0.05-0.45-0.14-0.61-0.29-0.13-0.12-0.2-0.13-0.36-0.13q-0.05 0.01-0.06 0.07 0 0 0 0.01-0.01 0-0.01 0.01v0.01q0 0-0.01 0 0 0.01 0 0.02c-0.14 0.17-0.31 0.29-0.41 0.48q-0.11 0.2-0.25 0.38c-0.18 0.22-0.46 0.33-0.74 0.21-0.2-0.07-0.19-0.33-0.19-0.51 0-0.19-0.01-0.52-0.28-0.52q-0.32 0.02-0.58 0.22c-0.29 0.2-0.39 0.46-0.53 0.77-0.09 0.21-0.2 0.43-0.43 0.53-0.23 0.11-0.42-0.08-0.56-0.24q-0.11-0.14-0.22-0.29c-0.14-0.21-0.26-0.35-0.35 0q-0.1 0.3-0.12 0.61c0 0.14 0.01 0.28-0.04 0.41-0.06 0.18-0.27 0.28-0.44 0.31q-0.38 0.07-0.75 0.02c-0.09-0.01-0.23-0.05-0.32-0.02-0.21 0.08-0.09 0.29-0.03 0.39q0.15 0.24 0.36 0.43c0.28 0.27 0.27 0.47 0.28 0.85q0 0.54 0 1.08c0 0.41 0.05 0.83 0 1.24-0.06 0.36-0.11 0.49-0.4 0.73-0.22 0.17-0.41 0.31-0.56 0.56q-0.15 0.26-0.3 0.52c-0.16 0.28-0.35 0.53-0.66 0.67-0.15 0.08-0.32 0.03-0.48 0.02-0.27 0-0.47 0.14-0.7 0.26-0.17 0.1-0.43 0.14-0.56 0.27q-0.06 0.05-0.14 0.09 0.01 0.03-0.01 0.06-0.02 0.02-0.04 0.04-0.05 0.04-0.08 0c-0.12 0.08-0.26 0.27-0.35 0.34q-0.16 0.13-0.37 0.12c-0.31-0.01-0.86-0.84-1.14-0.56-0.16 0.15-0.37 0.58-0.62 0.59-0.28 0.01-0.37-0.3-0.48-0.51-0.26-0.45-0.65-0.48-1.04-0.74-0.33-0.2-0.59-0.52-0.75-0.87-0.07-0.15-0.16-0.4-0.35-0.43q-0.22-0.03-0.43 0.03-0.37 0.07-0.38 0.44c0 0.29 0.06 0.57-0.04 0.84q-0.02 0.03-0.05 0.03-0.01 0.05-0.06 0.06h-0.04q-0.05 0-0.06-0.04c-0.54-0.29-1.16-0.42-1.73-0.63-0.45-0.15-1.03-0.32-1.41-0.61-0.28-0.22-0.32-0.63-0.52-0.93-0.29-0.45-0.97-0.09-1.4-0.09q-0.43 0.02-0.85-0.01c-0.21-0.01-0.41-0.11-0.59-0.18-0.36-0.13-0.67-0.1-1.02 0.02-0.25 0.1-0.53 0.17-0.76 0.31-0.32 0.18 0.08 0.8-0.32 0.97q-0.25 0.09-0.53 0.13c-0.15 0.02-0.47 0.02-0.55 0.17q-0.02 0.03-0.06 0.04c-0.03 0-0.06 0.04-0.06 0.07q-0.02 0.04-0.05 0.05 0 0-0.01 0c-0.13 0.36-0.11 0.81-0.15 1.19-0.05 0.37-0.03 0.77-0.11 1.13-0.05 0.24 0 0.49-0.03 0.73-0.02 0.16-0.17 0.36 0.17 0.46q0.1 0.03 0.2 0.06c0.23 0.11 0.47-0.01 0.66 0.21 0.35 0.44-0.35 0.68-0.49 0.99-0.15 0.33 0.47 0.45 0.58 0.69 0.14 0.34-0.09 0.68 0.18 0.98 0.26 0.31 0.59 0.52 0.85 0.82q0.43 0.49 1 0.84c0.42 0.26 0.94 0.61 1.45 0.51 0.25-0.05 0.54-0.09 0.8-0.03 0.2 0.04 0.24 0.32 0.24 0.49-0.01 0.43 0.1 0.69 0.42 0.96q0.49 0.38 0.95 0.79c0.24 0.21 0.54 0.44 0.72 0.72 0.14 0.23 0.2 0.47-0.02 0.67-0.19 0.17-0.53 0.3-0.78 0.31-0.38 0.02-0.61 0.14-0.75 0.51-0.07 0.18-0.17 0.38-0.23 0.57-0.09 0.38-0.17 0.73-0.31 1.1-0.05 0.11-0.13 0.25-0.26 0.31-0.15 0.06-0.35 0.06-0.5 0.14-0.43 0.22-0.63 0.72-0.68 1.19-0.04 0.45-0.15 1.08 0.06 1.49 0.2 0.37 0.48 0.69 0.68 1.06 0.19 0.37 0.41 0.8 0.4 1.23-0.02 0.41-0.15 0.83-0.31 1.21-0.14 0.35-0.16 1.02-0.67 1.03-0.43 0.01-0.86-0.19-1.29-0.17-0.49 0.02-0.82 0.28-1.12 0.63-0.23 0.26-0.43 0.62-0.73 0.79-0.29 0.16-0.54-0.09-0.81-0.14-0.19 0.06-0.46 0.16-0.59 0.32-0.16 0.19-0.13 0.5-0.08 0.73 0.02 0.16 0.07 0.32 0.07 0.48-0.01 0.2-0.05 0.39-0.06 0.6 0 0.43-0.07 0.7-0.33 1.05-0.24 0.3-0.37 0.71-0.68 0.94-0.55 0.4-1.25 0.28-1.88 0.23-0.26-0.02-0.48 0-0.72 0.12q-0.19 0.1-0.4 0.17c-0.35 0.09-0.73 0.03-1.07-0.1-0.2-0.08-0.42-0.13-0.62-0.21-0.17-0.08-0.57-0.3-0.77-0.22-0.37 0.15-0.74 0.3-1.13 0.39-0.44 0.11-0.96 0.23-1.26 0.59-0.26 0.3-0.24 0.69-0.29 1.06-0.07 0.58-0.38 1.16-1.05 0.91-0.35-0.13-0.72-0.25-1.05-0.43q-0.11-0.08-0.23-0.14c-0.18-0.1-0.32 0.11-0.38 0.24-0.07 0.16-0.09 0.34-0.15 0.5-0.3 0.73-1.21 0.47-1.81 0.59-0.82 0.18-1.27 1.02-2.15 1.07q-0.01 0.04-0.05 0.05c-0.26 0.02-0.43 0.07-0.68-0.02q-0.25-0.09-0.45-0.27-0.48-0.39-0.83-0.89c-0.26-0.37-0.5-0.77-0.85-1.06-0.3-0.23-0.68-0.26-0.99-0.48-1.17-0.84-0.96-2.47-1.58-3.62-0.19-0.35-0.46-0.67-0.52-1.08-0.05-0.33-0.05-0.71 0.01-1.04 0.04-0.25 0.12-0.47 0.18-0.72 0.05-0.2 0.26-0.44 0.23-0.64-0.01-0.19-0.14-0.34-0.16-0.52-0.02-0.19-0.05-0.37-0.02-0.57 0.02-0.21 0-0.62 0.21-0.75 0.32-0.21 0.67-0.38 1-0.57 0.2-0.11 0.45-0.23 0.57-0.45 0.16-0.32 0.13-0.58-0.01-0.9q-0.29-0.64-0.68-1.23c-0.39-0.61-1-1.23-1.03-1.99-0.02-0.36 0.09-0.64 0.32-0.92 0.16-0.18 0.4-0.43 0.38-0.7-0.03-0.24-0.19-0.39-0.39-0.52-0.27-0.17-0.54-0.3-0.72-0.57-0.18-0.27-0.28-0.72-0.53-0.94-0.3-0.25-0.81-0.16-1.17-0.16-0.09 0-0.88-0.03-0.88-0.09q0 0.04-0.04 0.04 0 0.01-0.01 0.02-1.17 1.55-2.35 3.11c-0.05 0.07-0.23 0.41-0.34 0.41h-0.91c-0.08 0-0.15 0.03-0.11-0.02q-0.53 0.66-1.08 1.32-1.45 1.8-2.91 3.59 0.01 0.02 0 0.04c-0.17 0.68-0.06 1.49 0.07 2.18q0.13 0.65 0.25 1.29c0.05 0.23 0.17 0.46 0.17 0.7 0.03 0.54-0.54 0.4-0.89 0.44-0.34 0.03-0.4 0.62-0.55 0.86q-0.17 0.25-0.45 0.38c-0.41 0.16-0.77 0.37-1.16 0.57-0.35 0.18-0.73 0.26-1.1 0.4-0.47 0.18-0.68 0.49-0.64 1 0.03 0.33 0.18 0.67 0.15 1.01-0.03 0.74-0.63 0.95-1.08 1.43-0.53 0.56-0.63 1.3-0.64 2.04 0 0.37-0.01 0.7-0.23 1.02-0.21 0.31-0.49 0.58-0.74 0.86-0.59 0.63-1.27 1.22-2.04 1.62-0.74 0.36-1.33 1.18-1.48 1.99-0.17 0.8-0.66 1.41-1.17 2.04q-0.25 0.29-0.44 0.63-0.1 0.2-0.26 0.35c-0.24 0.21-0.64 0.3-0.93 0.41-0.81 0.3-1.76 0.69-2.21 1.48-0.46 0.81-0.36 1.69-0.44 2.59q-0.06 0.7-0.06 1.42c0 0.17 0.04 0.38 0 0.56v-0.01c-0.02 0.14-0.16 0.26-0.25 0.32q0 0-0.01 0-0.04 0.03-0.05 0.03c-0.27 0.16-0.64 0.17-0.81 0.51-0.13 0.26-0.19 0.54-0.23 0.83-0.03 0.22-0.09 0.49-0.28 0.64-0.35 0.29-1 0.51-1.46 0.38-0.27-0.08-0.83-0.38-0.91-0.71q-0.01-0.01-0.01-0.02c0-0.22-0.08-0.68-0.25-0.83q-0.08-0.09-0.21-0.12-0.32 0.11-0.1 0.38 0.1 0.08 0.17 0.19c0.13 0.24 0.06 0.53 0.2 0.76 0.15 0.25 0.41 0.39 0.61 0.59 0.37 0.36 0.76 0.86 0.75 1.41-0.02 0.46-0.22 0.94-0.56 1.25q-0.37 0.33-0.87 0.34c-0.21 0.01-0.49 0-0.61 0.21q-0.13 0.25-0.14 0.52c-0.02 0.26 0.13 1-0.25 1.07-0.1 0.02-0.2-0.05-0.28-0.1-0.5-0.28-0.73 0.21-0.71 0.58 0 0.39 0.16 0.7 0.29 1.05 0.07 0.18 0.18 0.46 0.05 0.63-0.13 0.16-0.36 0.22-0.54 0.12-0.17-0.1-0.36-0.3-0.55-0.35-0.24-0.05-0.51-0.1-0.75-0.06-0.26 0.03-0.6 0.09-0.85 0-0.23-0.09-0.35-0.75-0.08-0.83 0.08-0.02 0.14 0.03 0.19 0.08q0.04 0.03 0.05 0.08c0.1 0.24 0.27 0.15 0.42 0.14q0.18 0 0.36 0.03 0.13 0.02 0.26 0.03 0-0.01 0.01-0.02 0.03 0 0.06-0.01 0.05-0.02 0.05-0.07 0.02-0.15-0.11-0.2-0.05-0.07-0.17-0.05h-0.09c-0.26 0.02-0.52 0-0.64-0.27-0.07-0.14-0.14-0.36 0.01-0.47 0.19-0.14 0.45-0.1 0.66-0.1 0.26-0.01 0.36-0.12 0.31-0.39-0.03-0.14 0.05-0.27 0.03-0.4-0.02-0.12-0.04-0.27-0.11-0.36-0.16-0.22-0.18 0.02-0.18 0.07q0 0.14 0 0.28c-0.01 0.12-0.04 0.22-0.16 0.26-0.17 0.05-0.35-0.12-0.45-0.23q-0.12-0.15-0.25-0.3-0.06-0.08-0.15-0.13c-0.13-0.07-0.28 0.11-0.26 0.22 0.04 0.3 0.81 0.47 0.47 0.84-0.08 0.1-0.26 0.08-0.23 0.29q0.02 0.05 0.01 0.12c-0.01 0.07-0.03 0.13-0.11 0.16-0.26 0.1-0.1 0.51-0.24 0.73-0.3 0.5-1.07-0.3-1.23-0.6-0.09-0.19-0.09-0.42-0.31-0.54-0.16-0.09-0.35-0.15-0.5-0.25q-0.15-0.12-0.25-0.29c-0.11-0.14-0.27-0.37-0.5-0.29q-0.16 0.05-0.3 0.12c-0.51 0.25-1.14 0.03-1.37-0.49-0.04-0.07-0.34 0.17-0.46 0.08-0.11-0.08-0.26-0.29-0.41-0.1q-0.08 0.13-0.21 0.22c-0.12 0.08-0.29 0.05-0.39-0.06-0.13-0.14-0.24-0.35-0.48-0.15q-0.13 0.12-0.29 0.17c-0.56 0.15-1.41-0.33-1.85 0.2-0.23 0.28-0.24 0.62-0.37 0.93q-0.05 0.14-0.14 0.26c-0.01 0.02-0.13 0.13-0.14 0.13 0 0.04-0.06 0.06-0.09 0.04q-0.05-0.01-0.1-0.03h-0.08q-0.03 0-0.06-0.03c-0.09-0.21-0.21-0.33-0.18-0.58 0.06-0.42-0.18-0.64-0.4-0.95-0.16-0.22-0.2-0.4-0.22-0.66-0.01-0.12-0.01-0.27-0.07-0.37q-0.29-0.24-0.33-0.02c-0.01 0.05-0.07 0.13-0.1 0.16-0.11 0.09-0.3 0.17-0.44 0.08-0.23-0.16-0.33 0.09-0.54 0.1-0.07 0-0.14-0.06-0.19-0.09-0.18-0.12-0.31 0.09-0.41 0.21-0.1 0.14-0.46 0.24-0.63 0.28-0.37 0.08-0.63-0.2-0.56-0.55 0.07-0.29 0.18-0.56 0-0.85-0.15-0.25-0.38-0.43-0.58-0.64q-0.31-0.33-0.58-0.69c-0.2-0.29-0.4-0.6-0.65-0.86-0.38-0.4-1.27-1.1-1.81-0.56q-0.02 0.01-0.03 0.01 0.02 0.04-0.01 0.07c-0.16 0.17 0.06 0.6 0.15 0.75q0.19 0.27 0.34 0.56c0.06 0.14 0.03 0.27 0.03 0.41-0.02 0.28 0.17 0.03 0.24-0.06q0.15-0.18 0.37-0.25c0.16-0.04 0.19 0.02 0.34 0.11 0.29 0.16 0.29 0.45 0.32 0.75q0.02 0.4 0.02 0.81c0 0.21-0.05 0.42-0.05 0.62 0.02 0.36 0.12 0.76 0.06 1.11-0.03 0.23-0.01 0.45 0.19 0.59q0.08 0.05 0.15 0.1 0.08 0.06 0.12 0.16c0.09 0.3-0.23 0.76 0.13 0.93 0.19 0.09 0.92 0.24 0.7 0.63-0.09 0.15-0.28 0.23-0.42 0.33-0.06 0.03-0.31 0.19-0.24 0.29 0.13 0.17 0.39 0.17 0.58 0.24 0.18 0.07 0.37 0.25 0.56 0.28 0.3 0.05 0.38-0.22 0.56-0.37 0.19-0.16 0.51-0.15 0.74-0.12 0.29 0.04 0.85-0.14 1.1 0.04 0.22 0.15 0.32 0.76 0.62 0.66 0.31-0.1 0.5-0.17 0.8 0.01q0.26 0.16 0.51 0.34c0.17 0.12 0.32 0.29 0.53 0.34 0.18 0.04 0.49 0.16 0.43 0.41q-0.03 0.13-0.12 0.25c-0.17 0.2-0.22 0.35-0.23 0.61 0.01 0.26 0.48 0.6 0.63 0.78 0.15 0.19 0.34 0.4 0.35 0.64 0.02 0.36-0.04 0.76 0.16 1.08 0.16 0.27 0.4 0.48 0.59 0.72 0.17 0.22 0.21 0.51 0.3 0.75 0.13 0.37 0.39 0.59 0.69 0.83 0.21 0.19 0.43 0.39 0.56 0.65 0.14 0.26 0.21 0.58 0.39 0.83 0.19 0.26 0.46 0.45 0.67 0.7 0.17 0.19 0.22 0.42 0.29 0.67q0.06 0.19 0.06 0.38-0.02 0.12-0.01 0.24 0.19 0.25 0.18 0.03c0-0.13 0.02-0.31 0.14-0.38 0.37-0.22 0.37 0.3 0.5 0.48 0.04 0.07 0.23-0.16 0.27-0.18q0.08-0.05 0.18-0.05c0.1 0 0.16 0.08 0.2 0.15q0.05-0.01 0.07 0.04 0 0 0.01 0 0.02 0.01 0.03 0.04 0.07 0.02 0.03 0.09c0.05 0.07 0.15 0.13 0.18 0.22q0.02 0.01 0.02 0.04c0.01 0.03 0.33 0.18 0.38 0.21q0.19 0.13 0.37 0.27 0.2 0.13 0.35 0.32c0.3 0.4 0.48 0.83 1 1.01 0.39 0.12 0.81 0.2 1.13 0.46 0.41 0.33 0.68 0.8 1.12 1.09 0.88 0.6 1.85 1.19 2.9 1.43 0.38 0.08 0.79 0.2 1.06 0.49 0.12 0.13 0.17 0.23 0.24 0.38 0.05 0.12 0.17 0.18 0.17 0.31q-0.01 0.05-0.05 0.06c0 0.16 0.09 0.29 0.09 0.45q0 0.36-0.01 0.71c-0.03 0.37 0 0.74-0.02 1.11-0.01 0.19-0.05 0.39-0.06 0.59 0 0.19 0.03 0.37 0.04 0.56 0.01 0.31-0.16 0.58-0.3 0.86-0.23 0.43-0.38 0.81-0.2 1.3 0.15 0.39 0.37 0.73 0.55 1.11 0.07 0.12 0.14 0.27 0.14 0.42-0.01 0.16-0.06 0.33-0.06 0.5 0.02 0.31 0.14 0.67 0.03 0.97q-0.07 0.21-0.21 0.37c-0.19 0.22-0.22 0.41-0.27 0.67-0.09 0.43-0.07 0.84-0.04 1.27 0.03 0.46 0.12 0.77 0.43 1.12 0.15 0.17 0.31 0.36 0.32 0.59 0.03 0.65-0.6 0.61-1.07 0.8q-0.44 0.21-0.92 0.23c-0.26 0.01-0.6 0.04-0.68 0.31q0.02 0.02 0.03 0.05 0 0.07-0.04 0.11c0 0.31-0.01 0.63 0.08 0.92q0.15 0.46 0.42 0.87c0.28 0.44 0.63 0.91 0.66 1.45 0.03 0.48-0.09 0.86-0.55 1.07-0.26 0.12-0.54 0.19-0.8 0.31-0.32 0.16-0.43 0.37-0.41 0.73 0.03 0.74 0.89 0.51 1.36 0.67 0.14 0.04 0.3 0.2 0.35 0.34 0.04 0.14 0.05 0.28 0.09 0.42 0.07 0.21 0.21 0.27 0.39 0.34 0.34 0.16 0.63 0.43 0.52 0.84-0.06 0.24-0.2 0.45-0.29 0.67q-0.19 0.45-0.21 0.93v0.05q0 0.51-0.05 1.03c-0.02 0.18-0.04 0.41-0.2 0.54-0.14 0.11-0.34-0.04-0.42-0.15-0.24-0.3-0.39-0.61-0.73-0.82-0.21-0.14-0.37-0.29-0.34-0.57q0.01-0.11 0.1-0.17c0.06-0.06 0.26-0.12 0.3-0.17 0.09-0.12-0.33-0.11-0.38-0.11-0.09 0-0.2 0.04-0.26-0.05-0.22-0.27-0.23 0.28-0.36 0.36-0.16 0.11-0.32-0.04-0.39-0.2-0.15-0.35-0.27-0.63-0.61-0.83-0.79-0.48-1.52-1.06-2.33-1.51q-0.66-0.37-1.35-0.69c-0.43-0.21-0.87-0.45-1.32-0.62-0.69-0.26-1.56-0.15-2.13-0.71-0.06-0.06-0.14-0.2-0.12-0.3 0.01-0.11 0.15-0.32-0.02-0.27-0.06 0.01-0.29 0.03-0.29 0.12q0.04 0.24 0.05 0.47 0 0.03-0.02 0.04 0.02 0.02 0.02 0.05v0.08q-0.01 0.06-0.07 0.06c-0.45 0.02-0.67-0.14-0.92-0.52-0.13-0.21-0.29-0.45-0.52-0.56-0.24-0.1-0.49-0.12-0.73-0.22q-0.36-0.16-0.67-0.41c-0.1-0.07-0.22-0.21-0.34-0.26-0.17-0.07-0.34-0.07-0.52-0.07-0.29-0.01-0.64-0.04-0.82-0.29-0.26-0.33-0.23-0.92-0.7-1.02-0.2-0.04-0.58-0.08-0.67-0.31-0.11-0.26-0.12-0.53-0.38-0.69q-0.2-0.1-0.4-0.22c-0.26-0.18-0.28-0.47-0.35-0.76-0.06-0.22-0.16-0.43-0.21-0.66q-0.06-0.29-0.12-0.58c-0.12-0.41-0.31-0.66-0.64-0.9-0.17-0.12-0.72-0.52-0.29-0.7 0.24-0.09 0.62-0.13 0.87-0.01 0.06 0.03 0.38 0.25 0.39 0.09q-0.01-0.18-0.02-0.37c-0.02-0.32-0.37-0.45-0.36-0.79 0.01-0.36 0.5-0.37 0.42-0.8-0.1-0.46 0.07-0.93-0.1-1.39-0.08-0.18-0.17-0.38-0.17-0.58-0.01-0.2 0.1-0.44 0.04-0.63-0.1-0.27-0.3-0.56-0.13-0.87q0.03-0.08 0.09-0.14c0.18-0.21 0.04-0.31 0.01-0.49q-0.04-0.14-0.06-0.29c-0.02-0.12 0.02-0.06-0.12-0.11-0.07-0.03-0.16-0.06-0.17-0.14-0.09-0.3 0.07-0.61-0.03-0.92-0.14-0.45-0.44-0.87-0.78-1.2q-0.26-0.26-0.57-0.44c-0.22-0.11-0.44-0.09-0.68-0.11-0.3-0.03-0.47-0.15-0.65-0.41-0.27-0.39-0.59-0.69-0.88-1.05-0.54-0.67-1.18-1.24-1.75-1.88-0.13-0.15-0.22-0.37-0.12-0.56 0.04-0.07 0.12-0.07 0.2-0.07 0.03-0.01 0.11 0.04 0.11 0.04 0.15 0.1 0.25 0.08 0.41 0.1 0.17 0.01 0.3 0.11 0.44 0.17 0.26 0.12 0.23 0.01 0.24-0.13q0.02-0.14 0.01-0.29c-0.03-0.45-0.2-0.87-0.33-1.3-0.15-0.46-0.57-0.82-0.95-1.09-0.24-0.17-0.54-0.36-0.67-0.63-0.13-0.28-0.11-0.76-0.36-0.97-0.27-0.23-0.11 0.15-0.22 0.29-0.15 0.17-0.38 0.14-0.53-0.03q-0.09-0.14-0.15-0.3c-0.14-0.35-0.41-0.3-0.73-0.29-0.17 0.01-0.37-0.09-0.53-0.16q-0.32-0.17-0.67-0.28c-0.19-0.06-0.47-0.02-0.53 0.2q-0.02 0.08-0.05 0.14-0.09 0.16-0.24 0.26c-0.15 0.1-0.35-0.03-0.45-0.15-0.2-0.26-0.18-0.57-0.34-0.83-0.1-0.16-0.2-0.29-0.23-0.48-0.02-0.12 0.09-0.23 0.07-0.34q-0.02-0.23 0.03-0.46c0.05-0.25-0.03-0.44-0.14-0.65q-0.01-0.02-0.01-0.04c-0.26-0.06-0.58-0.24-0.75-0.44q-0.17-0.22-0.3-0.47c-0.17-0.3-0.42-0.42-0.73-0.53-0.32-0.11-0.63-0.35-0.76-0.66-0.19-0.44-0.12-0.92-0.3-1.35-0.21-0.51-0.58-0.94-1.09-1.18-0.14-0.06-0.29-0.14-0.37-0.28-0.18-0.33-0.42-0.35-0.76-0.37-0.34-0.03-0.73-0.09-0.93-0.41-0.14-0.24-0.22-0.47-0.48-0.62-0.17-0.1-0.36-0.18-0.51-0.31-0.33-0.27-0.39-0.5-0.54-0.87-0.16-0.37-0.47-0.67-0.61-1.05-0.15-0.42-0.17-0.77-0.17-1.21 0-0.28-0.02-0.57-0.31-0.71-0.14-0.06-0.23-0.13-0.32-0.25-0.13-0.17-0.05-0.4 0.09-0.53 0.26-0.25-0.24-0.42-0.34-0.54-0.07-0.1-0.11-0.15-0.09-0.27 0.05-0.35-0.15-0.48-0.3-0.76q-0.1-0.22-0.2-0.44c-0.11-0.21-0.25-0.33-0.49-0.37-0.27-0.05-0.35 0.07-0.54 0.23-0.16 0.12-0.43 0.06-0.59-0.05-0.21-0.15-0.42-0.51-0.69-0.54-0.44-0.06-0.6 0.54-0.89 0.75-0.21 0.14-0.63 0.1-0.85 0.02-0.29-0.1-0.41-0.29-0.58-0.53-0.14-0.18-0.36-0.37-0.61-0.27-0.18 0.07-0.29 0.22-0.4 0.37-0.17 0.22-0.34 0.35-0.61 0.37-0.11 0-0.25-0.06-0.32-0.12-0.17-0.15-0.25-0.17-0.44-0.17-0.04 0.45-0.13 1.27-0.71 1.27-0.4 0-0.8-0.44-1.04-0.72-0.37-0.45-0.7-0.94-1.07-1.38-0.31-0.38-0.58-0.78-0.92-1.13-0.28-0.28-0.61-0.45-0.87-0.74-0.31-0.34-0.59-0.66-0.83-1.05q-0.18-0.26-0.34-0.54c-0.09-0.18-0.18-0.38-0.34-0.52-0.23-0.2-0.5-0.37-0.49-0.72 0.02-0.24 0.38-0.26 0.37-0.5-0.05-0.92-0.94-1.44-1.47-2.09-0.18-0.21-0.34-0.49-0.28-0.77 0.06-0.24 0.36-0.23 0.54-0.21 0.2 0.01 0.37 0.13 0.55 0.16 0.25 0.05-0.01-0.5-0.03-0.55-0.1-0.21-0.14-0.44-0.45-0.4q-0.2 0.02-0.36-0.1c-0.28-0.22-0.36-0.45-0.33-0.8q0.05-0.3 0.02-0.6c-0.01-0.14-0.04-0.32-0.11-0.44-0.09-0.15-0.17 0.04-0.21 0.1-0.34 0.48-1.09 0.01-1.54-0.07q-0.04-0.01-0.05-0.06c0 0.02-0.18-0.05-0.22-0.07v-0.01c-0.34-0.18-0.42 0.28-0.3 0.47q0.06 0.08 0.11 0.16c0.04 0.07 0.11 0.17 0.11 0.26q0.02 0.14-0.04 0.27c-0.07 0.16-0.07 0.31-0.09 0.48-0.04 0.34-0.61 0.51-0.88 0.42-0.24-0.08-0.42-0.26-0.62-0.4-0.17-0.12-0.5-0.28-0.57 0.04-0.02 0.09-0.03 0.2-0.07 0.27-0.26 0.44-0.87-0.02-1.21-0.08-0.22-0.04-0.57-0.03-0.71-0.23-0.08-0.12-0.11-0.27-0.19-0.39-0.16-0.23-0.41-0.19-0.64-0.28-0.17-0.07-0.31-0.25-0.38-0.42q-0.07-0.16-0.15-0.31c-0.1-0.17-0.23-0.22-0.39-0.3q-0.45-0.25-0.86-0.54-0.26-0.18-0.3-0.48c-0.01-0.06-0.02-0.15 0.02-0.2 0.13-0.15 0.27-0.38 0.05-0.52-0.27-0.17-0.56-0.31-0.82-0.49-0.36-0.26-0.63-0.64-1.01-0.88-0.23-0.15-0.43-0.45-0.53-0.7-0.09-0.23-0.12-0.59 0.14-0.72 0.16-0.09 0.33-0.13 0.46-0.27q0.16-0.2 0.3-0.4c0.17-0.22 0.34-0.3 0.62-0.33 0.38-0.03 0.72-0.04 1.1 0.05q0.35 0.1 0.7 0.19 0.26 0.05 0.51 0.16c0.37 0.2 0.77 0.38 1.15 0.6 0.23 0.13 0.51 0.2 0.74 0.36 0.17 0.12 0.36 0.19 0.55 0.28 0.39 0.17 0.81 0.25 1.2 0.42 0.43 0.2 0.83 0.5 1.32 0.58 0.17 0.03 0.38 0.02 0.54 0.09 0.2 0.08 0.4 0.23 0.61 0.21 0.42-0.05 0.74 0.03 1.14 0.12 0.32 0.07 0.7 0.15 0.92 0.42 0.23 0.28 0.37 0.68 0.7 0.84 0.17 0.08 0.33 0.03 0.49-0.01q0.02-0.01 0.04 0c0.03-0.18 0.13-0.33-0.07-0.53q-0.07-0.07-0.13-0.14c-0.06-0.07-0.07-0.17-0.06-0.25 0.01-0.29 0.19-0.29 0.41-0.46 0.52-0.39-0.32-1.04-0.52-1.34-0.25-0.35-0.43-0.75-0.72-1.07-0.53-0.61-0.97-1.2-0.96-2.04q0-0.34 0.05-0.67c0.04-0.21 0.14-0.38 0.19-0.58 0.09-0.35 0.12-0.72 0.32-1.02 0.17-0.25 0.47-0.32 0.75-0.31 0.15 0.02 0.29 0.08 0.43 0.11 0.23 0.04 0.46 0.03 0.69 0.04 0.21 0.02 0.41 0.13 0.61 0.21q0.29 0.11 0.58 0.21 0.18 0.07 0.32 0.19c0.19 0.15 0.37 0.25 0.59 0.36 0.68 0.31 1.21 0.78 1.34 1.55 0.05 0.37 0.01 0.74 0.01 1.1-0.01 0.31-0.03 0.7 0.15 0.96 0.08 0.14 0.24 0.29 0.42 0.28 0.32-0.02 0.18-0.36 0.09-0.49-0.09-0.13-0.18-0.24-0.22-0.39-0.11-0.42-0.04-0.8-0.05-1.23-0.02-0.49-0.18-0.98-0.23-1.49-0.03-0.32-0.1-0.7 0.04-1.01 0.15-0.32 0.4-0.57 0.48-0.92 0.03-0.13 0.13-0.97-0.23-0.75-0.17 0.1-0.23 0.14-0.43 0.14-0.23 0-0.37 0.13-0.58 0.17-0.41 0.07-0.81 0.03-1.22-0.01-0.75-0.05-1.53 0.36-2.23-0.09-0.63-0.41-0.91-0.96-0.73-1.72 0.08-0.29 0.25-0.86-0.03-1.1-0.31-0.27-0.48 0.03-0.66 0.22q-0.24 0.26-0.46 0.54c-0.48 0.63-1.5 0.43-2.03 1.05-0.21 0.24-0.34 0.58-0.12 0.87 0.15 0.2 0.38 0.38 0.65 0.42 0.44 0.08 0.89 0.05 1.33 0.08 0.21 0.02 0.58 0.02 0.66 0.27 0.08 0.25-0.05 0.48-0.17 0.69-0.1 0.21-0.15 0.45-0.31 0.63q-0.19 0.21-0.38 0.41c-0.24 0.27-0.54 0.43-0.78 0.7-0.23 0.24-0.45 0.56-0.76 0.69-0.15 0.06-0.37 0.09-0.49 0.16-0.01 0-0.27 0.15-0.27 0.13q-0.01 0.05-0.05 0.07-0.02 0-0.03 0-0.17 0.14-0.38 0.25c-0.17 0.07-0.34 0.09-0.51 0.15-0.22 0.06-0.35 0.19-0.54 0.29-0.18 0.1-0.39 0.12-0.59 0.17q-0.3 0.09-0.61 0.17-0.55 0.14-1.11 0-0.68-0.17-1.32-0.45c-0.36-0.15-0.65-0.44-0.91-0.73q-0.21-0.25-0.46-0.46c-0.23-0.19-0.5-0.11-0.75-0.02-0.33 0.11-0.51 0.4-0.89 0.37-0.35-0.03-0.76-0.07-1.09-0.21q-0.22-0.09-0.41-0.24-0.12-0.11-0.27-0.19c-0.15-0.07-0.24-0.03-0.38-0.05-0.23-0.02-0.46-0.07-0.68 0-0.19 0.06-0.53 0.22-0.42 0.49 0.15 0.37 0.42 0.66 0.72 0.92 0.41 0.35 1.26 0.87 1.24 1.5q-0.01 0.42-0.41 0.59-0.25 0.09-0.49 0.14c0 0-0.31 0.12-0.31 0.15q-0.01 0.03-0.05 0.04-0.01 0-0.04 0.01h-0.01c-0.25 0.01-0.49-0.4-0.63-0.57-0.21-0.24-0.38-0.53-0.62-0.75q-0.35-0.33-0.69-0.68-1.33-1.37-2.41-2.95-0.59-0.86-1.42-1.48c-0.33-0.25-0.36-0.67-0.28-1.04 0.13-0.57 0.5-1.01 0.73-1.54 0.12-0.28 0.26-0.75 0.07-1.04-0.14-0.22-0.36-0.34-0.47-0.59-0.17-0.38-0.17-0.78-0.22-1.18-0.06-0.47-0.13-0.93-0.13-1.41 0-0.51-0.02-1.02 0.02-1.53q0.03-0.31 0.07-0.63c0.01-0.1-0.01-0.24 0.03-0.33 0.09-0.23 0.39-0.16 0.59-0.16 0.49 0 0.72-0.23 1.09-0.49q0.58-0.39 1.15-0.78c0.16-0.11 0.34-0.19 0.49-0.3 0.22-0.15 0.27-0.51 0.26-0.75 0-0.35-0.01-0.48 0.26-0.71 0.12-0.09 0.32-0.14 0.46-0.2q0.29-0.14 0.6-0.29c0.33-0.14 0.65-0.2 0.98-0.06 0.31 0.12 0.56 0.38 0.82 0.58q0.29 0.23 0.61 0.41c0.21 0.09 0.39 0.1 0.61 0.13q0.2 0.04 0.41 0.05 0.11 0.02 0.22-0.02c0.18-0.08 0.2-0.37 0.06-0.5q-0.23-0.24-0.52-0.4c-0.15-0.08-0.34-0.14-0.48-0.23-0.25-0.17-0.33-0.35-0.34-0.64q-0.04-0.72-0.15-1.43c-0.05-0.33 0.06-0.64 0.21-0.93 0.18-0.35 0.35-0.73 0.58-1.05 0.21-0.27 0.55-0.46 0.81-0.67q0.22-0.17 0.49-0.24c0.25-0.05 0.41-0.15 0.62-0.3q0.18-0.13 0.39-0.2c0.3-0.12 0.29-0.47 0.29-0.74 0-0.4 0.1-0.88-0.05-1.26-0.16-0.39-0.47-0.72-0.7-1.08-0.14-0.23-0.26-0.49-0.43-0.7q-0.15-0.18-0.27-0.38-0.24-0.4-0.08-0.83c0.12-0.28 0.39-0.46 0.63-0.62 0.31-0.21 0.62-0.75 0.46-1.15-0.09-0.2-0.2-0.4-0.23-0.62-0.04-0.18 0-0.44-0.11-0.59-0.21-0.3-0.73-0.28-1.05-0.41-0.22-0.1-0.44-0.11-0.66-0.18q-0.31-0.1-0.63-0.18c-0.22-0.04-0.48-0.05-0.69-0.13q-0.29-0.12-0.6-0.21-0.03-0.01-0.04-0.04h-0.03q-0.06-0.01-0.06-0.06c0-0.04-0.08-0.11-0.11-0.11q-0.01 0-0.02-0.01-0.07 0.02-0.08-0.05-0.01-0.02 0-0.02-0.01 0-0.03-0.01c-0.1-0.07-0.11-0.11-0.14-0.23-0.05-0.22-0.18-0.42-0.3-0.6-0.25-0.36-0.5-0.72-0.7-1.11-0.42-0.82-0.61-1.64-0.68-2.55q-0.12-1.48 0-2.96c0.04-0.47 0.1-0.97 0.04-1.44-0.07-0.53-0.33-0.9-0.65-1.3-0.18-0.24-0.3-0.47-0.3-0.79q0.01-0.3 0.07-0.59c0.03-0.23 0.02-0.46 0.05-0.69 0.03-0.23 0.07-0.42 0.05-0.66-0.01-0.15-0.02-0.31 0.04-0.45 0.12-0.31 0.34-0.52 0.6-0.72q0.26-0.22 0.5-0.47c0.13-0.14 0.31-0.21 0.45-0.36 0.17-0.18 0.31-0.38 0.35-0.64 0.03-0.19 0.01-0.39 0.05-0.57 0.08-0.3 0.25-0.41 0.49-0.57 0.12-0.09 0.37-0.23 0.46-0.34q0.02-0.02 0.03-0.03 0.02-0.03 0.05-0.04 0-0.03 0.04-0.04v-0.03c0-0.07-0.09-0.17-0.12-0.24q-0.07-0.21-0.12-0.43c-0.07-0.31-0.24-0.59-0.33-0.9-0.15-0.55-0.44-1.16-0.35-1.74 0.05-0.4-0.04-0.82-0.05-1.23q-0.02-0.53-0.01-1.08c0-0.34 0.04-0.68 0.04-1.02 0-0.31-0.01-0.62 0.06-0.92 0.16-0.72 0.32-1.43 0.6-2.12 0.27-0.63 0.63-1.22 0.93-1.84 0.33-0.66 0.59-1.35 0.93-2.02 0.14-0.28 0.23-0.6 0.39-0.87 0.1-0.17 0.21-0.33 0.42-0.38q0.61-0.14 1.23-0.17 0.3 0 0.59-0.06c0.13-0.03 0.27 0.01 0.41 0 0.46-0.05 0.92-0.02 1.38-0.11 0.4-0.07 0.82 0 1.23-0.04 0.49-0.04 0.94-0.27 1.4-0.43 0.42-0.15 0.89-0.29 1.32-0.36 0.23-0.03 0.47-0.01 0.69-0.07q0.31-0.1 0.62-0.16 0.3-0.04 0.6-0.1c0.14-0.02 0.45-0.07 0.39-0.31q-0.02-0.09-0.03-0.17c-0.01-0.91-0.5-1.7-0.55-2.6q-0.06-1.43-0.08-2.86-0.01-0.76-0.02-1.52-0.02-0.73-0.16-1.45c-0.07-0.44-0.03-0.9-0.06-1.36q-0.03-0.34-0.03-0.69c0-0.04 0.04-0.05 0.04-0.08v-0.01c-0.02-0.18 0.06-0.34 0.04-0.52-0.02-0.22-0.03-0.38 0-0.59q0.12-0.77 0.29-1.53c0.11-0.53 0.17-1.06 0.3-1.59 0.1-0.44 0.04-0.9 0.18-1.33 0.11-0.35 0.34-0.6 0.64-0.81q0.62-0.49 1.21-1.04 0.29-0.23 0.55-0.48c0.12-0.13 0.24-0.25 0.4-0.33 0.25-0.13 0.65-0.1 0.93-0.13 0.09-0.02 0.5-0.03 0.53-0.17 0.04-0.19-0.01-0.38 0-0.56 0.03-0.49-0.05-0.83-0.39-1.19-0.54-0.54-0.98-1.1-1.12-1.86-0.06-0.31-0.13-0.55 0.12-0.78 0.22-0.2 0.52-0.28 0.77-0.43 0.78-0.48 1.63-0.86 2.4-1.35 0.42-0.28 0.87-0.48 1.29-0.75q0.6-0.39 1.22-0.74c0.86-0.5 1.69-1.03 2.56-1.49q0.67-0.33 1.35-0.66c0.37-0.18 0.64-0.44 1.02-0.59q0.77-0.28 1.52-0.62c0.09-0.04 0.61-0.29 0.63-0.29q0.01-0.08 0.07-0.06c-0.04-0.3-0.23-0.62-0.34-0.89q-0.15-0.4-0.3-0.79-0.19-0.45-0.36-0.9c-0.05-0.12-0.14-0.29-0.1-0.43 0.03-0.14 0.14-0.12 0.26-0.2q0.23-0.16 0.5-0.22c0.49-0.11 0.94-0.32 1.42-0.45 0.16-0.05 0.39-0.13 0.56-0.07 0.22 0.06 0.39 0.23 0.62 0.29 0.28 0.08 0.66 0.19 0.95 0.1q0.31-0.11 0.63-0.19c0.84-0.17 1.23 0.95 1.61 1.48 0.15 0.21 0.26 0.44 0.52 0.53 0.19 0.06 0.35 0.17 0.52 0.27 0.31 0.18 0.76 0.33 1 0.61 0.37 0.44 0.26 1.03 0.07 1.52-0.13 0.35-0.39 0.72-0.37 1.1 0.01 0.45 0.19 0.92 0.33 1.34 0.15 0.47 0.37 0.88 0.76 1.19 0.33 0.26 0.7 0.4 1.05 0.63 0.23 0.16 0.51 0.38 0.55 0.68 0.04 0.35-0.1 1.06 0.39 1.16 0.15 0.04 0.28 0.04 0.41 0.14 0.08 0.08 0.17 0.2 0.29 0.2q0.13-0.01 0.27-0.01c0.19 0 0.38 0.09 0.57 0.09q0.36 0.01 0.6-0.28 0.19-0.24 0.35-0.51c0.11-0.18 0.26-0.33 0.38-0.51q0.36-0.57 0.74-1.13c0.26-0.35 0.02-0.9 0.13-1.3 0.05-0.23 0.34-0.49 0.54-0.58 0.29-0.12 0.51-0.01 0.75 0.16 0.27 0.19 0.46 0.07 0.73-0.01 0.16-0.05 0.39 0.02 0.57 0 0.24-0.03 0.45-0.14 0.7-0.13q0.28 0.02 0.57 0.05c0.34 0 0.4-0.17 0.43-0.46q0.04-0.24 0.1-0.49c0.1-0.47 0.29-1.06 0.12-1.53-0.16-0.48-0.37-0.9-0.69-1.29-0.17-0.22-0.32-0.4-0.59-0.49q-0.26-0.1-0.5-0.23c-0.31-0.14-0.64-0.24-0.85-0.52-0.25-0.34-0.36-0.76-0.59-1.11-0.27-0.43-0.67-0.45-1.12-0.61-0.61-0.23-0.47-0.85-0.46-1.38 0.02-0.47-0.07-0.93-0.08-1.39-0.01-0.44-0.01-0.94-0.15-1.36-0.23-0.71-0.57-1.38-0.57-2.14q-0.04-0.02-0.04-0.06c-0.04-0.34-0.42-0.63-0.51-0.98-0.14-0.57-0.03-1.32-0.57-1.68-0.47-0.31-1.02-0.49-1.53-0.73-0.48-0.22-0.98-0.47-1.41-0.78-0.26-0.2-0.45-0.42-0.53-0.74-0.09-0.38-0.06-0.81-0.06-1.2 0-0.96-0.48-1.7-1.07-2.4-0.22-0.28-0.64-0.81-0.94-0.33-0.09 0.16-0.21 0.41-0.43 0.39-0.25-0.02-0.61 0.02-0.82-0.16-0.21-0.18-0.27-0.45-0.31-0.71-0.05-0.26 0.09-0.43 0.33-0.53 0.11-0.05 0.22-0.04 0.33-0.05 0.23-0.02 0.36-0.18 0.52-0.32 0.37-0.32 0.56-0.67 0.81-1.07q0.13-0.21 0.32-0.37c0.1-0.09 0.27-0.1 0.38-0.15q0.3-0.13 0.62-0.22c0.2-0.05 0.43-0.05 0.62-0.11 0.49-0.16 0.64-0.53 0.85-0.95q0.18-0.36 0.37-0.72c0.07-0.15 0.13-0.33 0.23-0.46q0.07-0.09 0.11-0.18 0.01-0.03 0.03-0.03 0.01-0.02 0.02-0.02-0.01-0.01 0-0.03c0.02-0.06 0.17-0.17 0.17-0.16q0-0.05 0.06-0.06c0.14 0 0.26-0.1 0.43-0.09q0.32 0.01 0.61 0.15c0.28 0.14 0.4 0.28 0.54 0.56 0.18 0.37 0.41 0.45 0.81 0.47 0.56 0.02 1.32 0.17 1.35 0.86 0.02 0.47 0.08 1.07 0.51 1.34 0.15 0.09 0.31 0.4 0.26 0.58-0.03 0.11-0.07 0.22-0.18 0.28-0.08 0.05-0.39 0.14-0.37 0.25 0.06 0.5 0.5 0.6 0.92 0.45 0.38-0.12 0.7-0.33 1.09-0.43 0.4-0.1 0.8-0.22 1.21-0.27 0.95-0.11 1.83-0.51 2.76-0.7 0.44-0.09 0.92-0.03 1.36-0.05 0.52-0.02 0.99-0.12 1.42-0.42 0.68-0.46 1.61-0.25 2.38-0.23 0.38 0.01 0.75 0.03 1.07 0.26 0.39 0.26 0.7 0.51 1.15 0.64 0.73 0.2 1.49 0.19 1.86 0.95 0.37 0.8 0.58 1.7 0.87 2.54 0.17 0.49 0.33 1.01 0.55 1.49 0.16 0.35 0.32 0.75 0.61 1.03 0.38 0.34 0.87 0.58 1.3 0.83q0.63 0.36 1.25 0.72c0.81 0.46 1.64 0.81 2.34 1.43q0.45 0.43 0.77 0.97c0.21 0.35 0.4 0.74 0.71 1.03 0.39 0.37 0.89 0.49 1.39 0.65q0.66 0.19 1.31 0.45c0.41 0.17 0.86 0.44 1.3 0.54 0.17 0.04 0.38 0.06 0.51 0.16q0.07 0.05 0.18 0.12 0.02 0 0.03 0.02c0.54 0.35 1.25 0.41 1.86 0.58 0.68 0.17 1.35 0.33 2.01 0.59 0.54 0.21 1.17 0.39 1.67 0.69 0.51 0.32 0.88 0.83 1.29 1.25q0.39 0.4 0.76 0.8c0.22 0.23 0.47 0.42 0.67 0.65q0.23 0.29 0.37 0.63c0.15 0.33 0.34 0.64 0.52 0.96 0.64 1.15 0.99 2.44 1.73 3.55 0.26 0.39 0.6 0.72 0.88 1.1 0.27 0.34 0.39 0.73 0.48 1.16q0.15 0.71 0.27 1.42c0.08 0.46 0.21 0.88 0.35 1.31 0.12 0.39 0.11 1.02 0.46 1.28 0.18 0.14 0.36 0.33 0.57 0.41q0.24 0.09 0.46 0.22c0.28 0.19 0.43 0.46 0.57 0.77 0.17 0.4 0.39 0.66 0.78 0.88 0.69 0.37 1.48 0.5 2.14 0.93 0.3 0.19 0.58 0.41 0.79 0.7 0.26 0.34 0.4 0.73 0.57 1.11q0.29 0.65 0.56 1.3c0.13 0.34 0.28 0.7 0.5 1 0.54 0.73 1.42 0.76 2.16 1.15q0.01-0.01 0.03-0.01 0.14 0 0.27-0.05c0.38-0.11 0.7-0.29 1.1-0.29 0.15 0 0.28-0.1 0.44-0.09 0.11 0.02 0.24 0.08 0.33 0.13 0.32 0.19 0.53 0.47 0.79 0.73 0.17 0.18 0.36 0.33 0.63 0.29 0.18-0.01 0.51-0.07 0.63-0.22 0.2-0.23 0.09-0.59 0.28-0.82 0.2-0.23 0.34-0.32 0.64-0.32 0.25-0.01 0.51 0 0.74-0.07 0.19-0.04 0.34-0.14 0.51-0.19 0.17-0.04 0.35-0.05 0.43 0.13 0.2 0.46 0.26 0.96 0.43 1.43q0.25 0.68 0.49 1.36c0.29 0.81 0.53 1.66 0.34 2.52-0.05 0.25-0.19 0.57-0.16 0.82 0.03 0.29 0.18 0.52 0.37 0.73 0.28 0.3 0.66 0.55 1.01 0.77 0.3 0.2 0.43 0.43 0.45 0.78 0.01 0.28 0.02 0.52 0.28 0.67q0.03 0.01 0.03 0.04 0.03 0 0.04 0.04c0.26 0.09 0.64 0.23 0.91 0.13 0.27-0.12 0.31-0.46 0.61-0.55 0.19-0.05 0.51 0.06 0.68 0.12 0.2 0.06 0.31 0.15 0.32 0.37 0.02 0.35-0.09 0.93 0.21 1.19 0.2 0.17 0.8 0.34 1.03 0.17 0.39-0.28 0.4-1.01 0.92-1.12 0.31-0.06 0.62 0 0.93-0.03 0.41-0.04 0.8-0.09 1.21-0.04 0.41 0.04 0.79 0.09 1.2 0.04q0.6-0.07 1.2-0.08 0.56-0.01 1.13-0.04c0.29-0.01 0.46-0.07 0.66-0.28q0.19-0.19 0.41-0.37c0.24-0.19 0.49-0.38 0.79-0.46 0.24-0.06 0.42 0.1 0.62 0.19q0.03 0.01 0.03 0.03 0.02 0.01 0.03 0.01c0.34 0.27 0.4 0.79 0.58 1.16 0.24 0.5 0.34 1.03 0.57 1.53q0.34 0.74 0.82 1.41c0.28 0.4 0.58 0.94 0.99 1.22 0.42 0.29 0.94 0.31 1.38 0.55 0.41 0.21 0.7 0.58 1.02 0.91 0.75 0.77 1.36 1.62 2.28 2.22 0.77 0.51 1.64 0.81 2.44 1.27 0.43 0.25 0.83 0.54 1.25 0.8 0.4 0.23 0.81 0.44 1.18 0.73 0.36 0.27 0.67 0.61 0.98 0.94 0.3 0.3 0.53 0.66 0.83 0.95 0.24 0.25 0.46 0.31 0.79 0.23 0.16-0.04 0.33-0.13 0.49-0.16 0.33-0.05 0.66 0.03 0.98 0.13 1.79 0.64 3.44 1.58 5.16 2.38q0.42 0.21 0.85 0.37c0.22 0.09 0.46 0.21 0.71 0.23q0.58 0.02 1.15-0.09 0.38-0.06 0.55 0.27c0.13 0.22 0.11 0.72 0.39 0.82q0.01 0.01 0.02 0.02 0.22 0.06 0.45 0.11 0.21 0.02 0.42 0.08c0.26 0.06 0.48 0.16 0.66 0.36 0.26 0.29 0.29 0.71 0.47 1.04 0.14 0.24 0.35 0.32 0.59 0.44 0.18 0.1 0.35 0.23 0.53 0.31 0.69 0.29 1.64 0.48 2.15 1.09 0.18 0.21 0.25 0.54 0.29 0.81q0.06 0.32 0.13 0.64c0.04 0.2 0.04 0.41 0.1 0.61 0.08 0.22 0.19 0.44 0.22 0.67q0.02 0.28 0.03 0.54c0.01 0.41 0.01 0.81-0.09 1.21-0.11 0.49-0.28 0.95-0.44 1.42z"/>
			<path class="s0" d="m353.83 135.59c0.1-0.4 0.1-0.8 0.09-1.21q-0.01-0.26-0.03-0.54c-0.03-0.23-0.14-0.45-0.22-0.67-0.06-0.2-0.06-0.4-0.1-0.61q-0.07-0.31-0.13-0.64c-0.04-0.27-0.11-0.59-0.29-0.81-0.51-0.61-1.46-0.8-2.15-1.09-0.18-0.08-0.35-0.21-0.53-0.31-0.24-0.12-0.45-0.2-0.59-0.44-0.18-0.33-0.21-0.75-0.47-1.04-0.18-0.2-0.4-0.3-0.66-0.36q-0.21-0.05-0.42-0.08c-0.15-0.02-0.3-0.08-0.45-0.11q-0.01-0.01-0.02-0.01c-0.28-0.11-0.26-0.61-0.39-0.83q-0.17-0.32-0.55-0.26-0.57 0.1-1.15 0.08c-0.25-0.02-0.49-0.14-0.71-0.23q-0.43-0.17-0.85-0.36c-1.72-0.81-3.37-1.74-5.16-2.38-0.32-0.11-0.65-0.19-0.98-0.14-0.16 0.03-0.33 0.12-0.49 0.16-0.33 0.09-0.55 0.02-0.79-0.23-0.3-0.29-0.53-0.65-0.83-0.95-0.31-0.32-0.62-0.67-0.98-0.94-0.37-0.29-0.78-0.49-1.18-0.73-0.42-0.26-0.82-0.55-1.25-0.8-0.8-0.46-1.67-0.76-2.44-1.27-0.92-0.6-1.53-1.45-2.28-2.22-0.32-0.33-0.61-0.7-1.02-0.91-0.44-0.24-0.96-0.26-1.38-0.55-0.41-0.28-0.71-0.82-0.99-1.22q-0.48-0.66-0.82-1.41c-0.23-0.5-0.33-1.03-0.57-1.53-0.18-0.37-0.24-0.89-0.58-1.15q-0.01-0.01-0.03-0.01 0-0.03-0.03-0.04c-0.2-0.09-0.38-0.25-0.62-0.19-0.3 0.08-0.55 0.28-0.79 0.46q-0.22 0.18-0.41 0.37c-0.2 0.21-0.37 0.27-0.66 0.28q-0.57 0.04-1.13 0.04-0.6 0.01-1.2 0.08c-0.41 0.05-0.79 0-1.2-0.04-0.41-0.05-0.8 0-1.21 0.04-0.31 0.03-0.62-0.03-0.93 0.04-0.52 0.1-0.53 0.84-0.92 1.11-0.23 0.17-0.83 0-1.03-0.17-0.3-0.26-0.19-0.84-0.21-1.19-0.01-0.22-0.12-0.3-0.32-0.37-0.17-0.06-0.49-0.17-0.68-0.12-0.3 0.09-0.34 0.43-0.61 0.55-0.27 0.1-0.65-0.04-0.91-0.13q-0.01-0.04-0.04-0.04 0-0.03-0.03-0.04c-0.26-0.15-0.27-0.39-0.28-0.67-0.02-0.35-0.15-0.58-0.45-0.78-0.35-0.22-0.73-0.47-1.01-0.77-0.19-0.21-0.34-0.44-0.37-0.73-0.03-0.25 0.11-0.57 0.16-0.82 0.19-0.86-0.05-1.71-0.34-2.52q-0.24-0.68-0.49-1.36c-0.17-0.47-0.23-0.97-0.43-1.43-0.08-0.18-0.26-0.17-0.43-0.12-0.17 0.05-0.32 0.14-0.51 0.18-0.23 0.07-0.49 0.07-0.74 0.07-0.3 0.01-0.44 0.09-0.64 0.32-0.19 0.23-0.08 0.59-0.28 0.82-0.12 0.15-0.45 0.21-0.63 0.22-0.27 0.04-0.46-0.11-0.63-0.29-0.26-0.26-0.47-0.54-0.79-0.73-0.1-0.05-0.22-0.11-0.33-0.12-0.16-0.02-0.29 0.08-0.44 0.08-0.4 0-0.72 0.19-1.1 0.3q-0.13 0.04-0.27 0.04-0.02 0-0.03 0.01c-0.74-0.39-1.63-0.42-2.16-1.15-0.22-0.3-0.37-0.66-0.5-1q-0.27-0.65-0.56-1.3c-0.17-0.38-0.31-0.77-0.57-1.11q-0.33-0.42-0.79-0.7c-0.66-0.43-1.45-0.55-2.14-0.93-0.39-0.22-0.61-0.48-0.78-0.88-0.14-0.31-0.29-0.58-0.57-0.77-0.14-0.09-0.31-0.15-0.46-0.22-0.21-0.08-0.39-0.27-0.57-0.41-0.35-0.26-0.34-0.89-0.46-1.28-0.14-0.43-0.27-0.85-0.35-1.3q-0.12-0.72-0.27-1.43c-0.09-0.43-0.21-0.82-0.48-1.16-0.28-0.38-0.62-0.71-0.88-1.1-0.74-1.11-1.09-2.4-1.73-3.55-0.18-0.32-0.37-0.63-0.52-0.96q-0.14-0.34-0.37-0.63c-0.2-0.23-0.45-0.42-0.67-0.65q-0.37-0.4-0.76-0.8c-0.41-0.42-0.78-0.93-1.29-1.25-0.5-0.3-1.13-0.48-1.67-0.69-0.66-0.25-1.33-0.41-2.01-0.59-0.61-0.16-1.32-0.23-1.86-0.58q-0.01-0.01-0.03-0.02-0.11-0.07-0.18-0.12c-0.13-0.1-0.34-0.12-0.51-0.16-0.44-0.1-0.89-0.36-1.3-0.54q-0.65-0.26-1.31-0.45c-0.5-0.16-1-0.28-1.39-0.65-0.31-0.28-0.5-0.68-0.71-1.03q-0.32-0.54-0.77-0.97c-0.7-0.61-1.53-0.97-2.34-1.43q-0.62-0.35-1.25-0.72c-0.43-0.25-0.92-0.49-1.3-0.83-0.29-0.28-0.45-0.68-0.61-1.03-0.22-0.48-0.38-1-0.55-1.49-0.29-0.84-0.5-1.74-0.87-2.54-0.37-0.75-1.13-0.75-1.86-0.95-0.45-0.12-0.76-0.38-1.15-0.64-0.32-0.22-0.69-0.25-1.07-0.26-0.77-0.02-1.7-0.23-2.38 0.24-0.43 0.29-0.9 0.4-1.42 0.41-0.44 0.02-0.92-0.04-1.36 0.05-0.93 0.19-1.81 0.59-2.76 0.71-0.41 0.05-0.81 0.16-1.21 0.26-0.39 0.1-0.71 0.31-1.09 0.44-0.42 0.14-0.86 0.04-0.92-0.46-0.02-0.11 0.29-0.2 0.37-0.24 0.11-0.07 0.15-0.18 0.18-0.29 0.05-0.18-0.11-0.49-0.26-0.58-0.43-0.26-0.49-0.87-0.51-1.34-0.03-0.69-0.79-0.84-1.35-0.86-0.4-0.02-0.63-0.1-0.81-0.47-0.14-0.28-0.26-0.42-0.54-0.56q-0.29-0.14-0.61-0.15c-0.17-0.01-0.29 0.09-0.43 0.09q-0.06 0.01-0.06 0.07c0-0.02-0.15 0.09-0.17 0.15q-0.01 0.02 0 0.03-0.01 0.01-0.02 0.02-0.02 0-0.03 0.03-0.04 0.09-0.11 0.18c-0.1 0.14-0.16 0.31-0.23 0.46q-0.19 0.36-0.37 0.72c-0.21 0.42-0.36 0.79-0.85 0.95-0.19 0.06-0.42 0.06-0.62 0.11q-0.32 0.09-0.62 0.22c-0.11 0.05-0.28 0.06-0.39 0.15q-0.17 0.17-0.31 0.37c-0.25 0.4-0.44 0.76-0.81 1.07-0.16 0.15-0.29 0.3-0.52 0.32-0.11 0.01-0.22 0-0.34 0.05-0.23 0.1-0.37 0.27-0.32 0.53 0.04 0.27 0.1 0.53 0.31 0.71 0.21 0.18 0.57 0.14 0.82 0.16 0.22 0.02 0.34-0.23 0.43-0.39 0.3-0.48 0.72 0.05 0.94 0.33 0.59 0.71 1.07 1.44 1.07 2.4 0 0.39-0.03 0.82 0.06 1.2 0.08 0.32 0.27 0.55 0.53 0.74 0.43 0.31 0.93 0.56 1.41 0.78 0.51 0.24 1.06 0.42 1.53 0.73 0.54 0.36 0.43 1.12 0.57 1.68 0.09 0.35 0.47 0.64 0.51 0.98q0 0.05 0.04 0.06c0 0.76 0.34 1.43 0.57 2.15 0.14 0.41 0.14 0.91 0.15 1.35 0.01 0.46 0.1 0.93 0.08 1.4-0.01 0.52-0.15 1.14 0.46 1.37 0.45 0.16 0.85 0.18 1.12 0.61 0.23 0.35 0.34 0.77 0.59 1.11 0.21 0.28 0.54 0.38 0.85 0.52q0.24 0.13 0.5 0.23c0.27 0.09 0.42 0.27 0.59 0.49 0.32 0.4 0.53 0.81 0.69 1.29 0.17 0.47-0.02 1.06-0.12 1.54q-0.06 0.23-0.1 0.48c-0.03 0.29-0.09 0.46-0.43 0.46q-0.29-0.03-0.57-0.05c-0.25-0.01-0.46 0.1-0.7 0.13-0.18 0.02-0.41-0.05-0.57 0-0.27 0.08-0.46 0.2-0.73 0.01-0.24-0.17-0.46-0.28-0.75-0.15-0.2 0.08-0.49 0.35-0.54 0.57-0.12 0.4 0.13 0.95-0.13 1.3q-0.38 0.56-0.74 1.13c-0.12 0.18-0.27 0.33-0.38 0.51q-0.16 0.27-0.35 0.51-0.24 0.29-0.6 0.29c-0.19-0.01-0.38-0.09-0.57-0.1q-0.14 0.01-0.27 0.01c-0.12 0-0.21-0.12-0.29-0.19-0.13-0.11-0.26-0.11-0.41-0.15-0.49-0.1-0.35-0.81-0.39-1.16-0.04-0.3-0.32-0.52-0.55-0.68-0.35-0.23-0.72-0.37-1.05-0.63-0.39-0.31-0.61-0.72-0.76-1.19-0.14-0.42-0.32-0.89-0.33-1.34-0.02-0.38 0.24-0.75 0.37-1.1 0.19-0.49 0.3-1.08-0.07-1.52-0.24-0.28-0.69-0.43-1-0.61-0.17-0.09-0.33-0.21-0.52-0.27-0.26-0.09-0.37-0.32-0.52-0.53-0.38-0.53-0.77-1.65-1.61-1.48q-0.32 0.08-0.63 0.19c-0.29 0.09-0.67-0.02-0.95-0.1-0.23-0.06-0.4-0.23-0.62-0.29-0.17-0.06-0.4 0.02-0.56 0.07-0.48 0.13-0.93 0.35-1.42 0.45q-0.27 0.07-0.5 0.22c-0.12 0.08-0.23 0.06-0.26 0.2-0.04 0.14 0.05 0.31 0.1 0.43q0.17 0.45 0.36 0.9 0.15 0.39 0.3 0.79c0.11 0.27 0.3 0.59 0.34 0.89q-0.06-0.02-0.07 0.06c-0.02 0-0.54 0.25-0.63 0.29q-0.75 0.34-1.52 0.62c-0.38 0.15-0.65 0.41-1.02 0.59q-0.67 0.32-1.35 0.67c-0.87 0.45-1.7 0.99-2.56 1.48q-0.62 0.35-1.22 0.74c-0.42 0.27-0.88 0.47-1.29 0.75-0.77 0.5-1.62 0.87-2.4 1.35-0.25 0.15-0.55 0.23-0.77 0.43-0.25 0.23-0.18 0.47-0.12 0.78 0.14 0.76 0.58 1.32 1.12 1.86 0.34 0.36 0.42 0.7 0.39 1.19-0.01 0.19 0.04 0.37 0 0.56-0.03 0.14-0.44 0.15-0.53 0.17-0.28 0.03-0.68 0.01-0.93 0.13-0.16 0.08-0.28 0.2-0.4 0.33q-0.26 0.25-0.55 0.49c-0.4 0.35-0.79 0.7-1.21 1.03-0.3 0.22-0.53 0.46-0.64 0.81-0.14 0.43-0.08 0.89-0.18 1.34-0.13 0.52-0.19 1.05-0.3 1.59q-0.17 0.75-0.29 1.52c-0.03 0.21-0.02 0.38 0 0.59 0.02 0.18-0.06 0.34-0.04 0.52v0.01c0 0.03-0.04 0.04-0.04 0.08q0 0.35 0.03 0.69c0.03 0.46-0.01 0.92 0.06 1.36q0.14 0.72 0.16 1.45 0.01 0.76 0.02 1.52 0.02 1.43 0.08 2.86c0.05 0.9 0.54 1.69 0.55 2.6q0.01 0.08 0.03 0.17c0.06 0.24-0.25 0.29-0.39 0.32q-0.3 0.05-0.6 0.09-0.31 0.06-0.62 0.16c-0.22 0.07-0.46 0.04-0.69 0.07-0.43 0.07-0.9 0.21-1.32 0.36-0.46 0.16-0.91 0.39-1.4 0.43-0.41 0.04-0.83-0.03-1.23 0.04-0.46 0.09-0.92 0.06-1.38 0.11-0.14 0.02-0.28-0.03-0.41 0q-0.29 0.06-0.59 0.06-0.62 0.03-1.23 0.18c-0.21 0.04-0.32 0.2-0.42 0.37-0.16 0.27-0.25 0.59-0.39 0.88-0.34 0.66-0.6 1.35-0.93 2.02-0.3 0.62-0.66 1.2-0.93 1.84-0.28 0.68-0.44 1.39-0.6 2.11-0.07 0.3-0.06 0.61-0.06 0.92 0 0.34-0.04 0.68-0.04 1.03q-0.01 0.53 0.01 1.07c0.01 0.41 0.1 0.83 0.05 1.23-0.09 0.58 0.2 1.19 0.35 1.74 0.09 0.31 0.26 0.59 0.33 0.9q0.05 0.22 0.12 0.43c0.03 0.07 0.12 0.17 0.12 0.24v0.03q-0.04 0.01-0.04 0.04-0.03 0.01-0.05 0.04-0.01 0.01-0.03 0.03c-0.09 0.11-0.34 0.25-0.46 0.34-0.24 0.16-0.41 0.27-0.49 0.57-0.04 0.18-0.02 0.39-0.05 0.57-0.04 0.26-0.18 0.46-0.35 0.64-0.14 0.15-0.32 0.22-0.45 0.36q-0.24 0.26-0.5 0.47c-0.26 0.2-0.48 0.42-0.6 0.72q-0.07 0.22-0.04 0.45c0.02 0.24-0.02 0.43-0.05 0.67-0.03 0.22-0.02 0.45-0.05 0.68q-0.06 0.29-0.07 0.59c0 0.32 0.12 0.55 0.3 0.79 0.32 0.4 0.58 0.77 0.65 1.3 0.06 0.48 0 0.97-0.04 1.44q-0.12 1.48 0 2.96c0.07 0.91 0.26 1.73 0.68 2.55 0.2 0.4 0.45 0.75 0.7 1.11 0.12 0.18 0.25 0.38 0.3 0.6 0.03 0.12 0.04 0.16 0.14 0.23q0.02 0.01 0.03 0.01-0.01 0 0 0.02 0.01 0.07 0.08 0.05 0.01 0.01 0.02 0.01c0.03 0 0.11 0.07 0.11 0.11q0 0.05 0.06 0.06h0.03q0.01 0.03 0.04 0.04 0.31 0.09 0.6 0.21c0.21 0.08 0.47 0.09 0.69 0.13q0.32 0.08 0.63 0.18c0.22 0.07 0.44 0.08 0.66 0.18 0.32 0.13 0.84 0.11 1.05 0.41 0.11 0.15 0.07 0.41 0.11 0.59 0.03 0.22 0.14 0.42 0.23 0.62 0.16 0.4-0.15 0.94-0.46 1.15-0.24 0.16-0.51 0.34-0.63 0.62-0.11 0.3-0.08 0.56 0.08 0.84q0.12 0.19 0.27 0.37c0.17 0.21 0.29 0.47 0.43 0.7 0.23 0.36 0.54 0.7 0.7 1.09 0.15 0.38 0.05 0.86 0.05 1.26 0 0.26 0.01 0.61-0.29 0.73-0.15 0.06-0.26 0.11-0.39 0.2-0.21 0.15-0.37 0.25-0.62 0.3q-0.27 0.07-0.49 0.24c-0.26 0.22-0.6 0.4-0.81 0.67-0.23 0.32-0.4 0.7-0.58 1.05-0.15 0.29-0.26 0.6-0.21 0.93q0.11 0.71 0.15 1.43c0.01 0.29 0.09 0.47 0.34 0.64 0.14 0.09 0.33 0.15 0.48 0.23q0.29 0.16 0.52 0.4c0.14 0.13 0.12 0.42-0.06 0.5q-0.11 0.04-0.22 0.02-0.21-0.01-0.41-0.05c-0.22-0.03-0.4-0.04-0.61-0.13-0.22-0.1-0.42-0.27-0.61-0.41-0.26-0.2-0.51-0.46-0.82-0.58-0.33-0.14-0.65-0.08-0.98 0.06q-0.31 0.15-0.6 0.29c-0.14 0.06-0.34 0.11-0.46 0.2-0.27 0.23-0.26 0.36-0.26 0.71 0.01 0.25-0.04 0.6-0.26 0.75-0.15 0.12-0.33 0.19-0.49 0.3q-0.57 0.39-1.15 0.78c-0.37 0.26-0.6 0.49-1.09 0.49-0.2 0-0.5-0.07-0.59 0.16-0.04 0.09-0.02 0.23-0.03 0.33q-0.04 0.31-0.07 0.63c-0.04 0.51-0.02 1.02-0.02 1.54 0 0.47 0.07 0.93 0.13 1.4 0.05 0.4 0.05 0.8 0.22 1.18 0.11 0.25 0.33 0.37 0.47 0.59 0.19 0.29 0.05 0.76-0.07 1.05-0.23 0.52-0.6 0.96-0.73 1.53-0.08 0.38-0.05 0.79 0.28 1.04q0.83 0.62 1.42 1.48 1.08 1.59 2.41 2.95 0.34 0.35 0.69 0.68c0.24 0.22 0.41 0.51 0.62 0.75 0.14 0.17 0.38 0.58 0.63 0.57h0.01q0.03-0.01 0.04-0.01 0.04-0.01 0.05-0.04c0-0.03 0.31-0.15 0.31-0.15q0.24-0.05 0.49-0.14 0.4-0.16 0.41-0.58c0.02-0.64-0.83-1.16-1.24-1.51-0.3-0.26-0.57-0.55-0.72-0.92-0.11-0.27 0.23-0.43 0.42-0.49 0.22-0.07 0.45-0.02 0.68 0 0.14 0.02 0.23-0.02 0.38 0.05q0.15 0.07 0.27 0.2 0.19 0.14 0.41 0.23c0.33 0.14 0.74 0.18 1.09 0.21 0.38 0.03 0.56-0.26 0.89-0.37 0.25-0.09 0.52-0.17 0.75 0.02q0.25 0.22 0.46 0.46c0.26 0.29 0.55 0.58 0.91 0.74q0.64 0.27 1.32 0.44 0.56 0.14 1.11 0 0.31-0.08 0.61-0.17c0.2-0.05 0.41-0.07 0.59-0.17 0.19-0.1 0.32-0.23 0.54-0.29q0.26-0.06 0.51-0.15 0.21-0.11 0.38-0.25 0.01 0 0.03 0 0.04-0.02 0.05-0.06c0 0.01 0.26-0.14 0.27-0.14 0.12-0.07 0.34-0.1 0.49-0.16 0.31-0.13 0.53-0.45 0.76-0.69 0.24-0.27 0.54-0.43 0.78-0.7q0.19-0.2 0.38-0.41c0.16-0.18 0.21-0.42 0.31-0.63 0.12-0.21 0.25-0.44 0.17-0.69-0.08-0.25-0.45-0.25-0.66-0.26-0.44-0.03-0.89-0.01-1.33-0.08-0.27-0.05-0.5-0.23-0.65-0.43-0.22-0.29-0.09-0.63 0.12-0.87 0.53-0.62 1.55-0.42 2.03-1.05q0.22-0.28 0.46-0.54c0.18-0.19 0.35-0.49 0.66-0.22 0.28 0.24 0.11 0.81 0.03 1.11-0.18 0.75 0.1 1.3 0.73 1.71 0.7 0.45 1.48 0.04 2.23 0.1 0.41 0.03 0.81 0.08 1.22 0 0.21-0.04 0.35-0.17 0.58-0.17 0.2 0 0.26-0.04 0.43-0.14 0.36-0.22 0.26 0.62 0.23 0.75-0.08 0.35-0.33 0.6-0.48 0.92-0.14 0.31-0.07 0.69-0.04 1.01 0.05 0.51 0.21 1 0.23 1.5 0.01 0.42-0.06 0.8 0.05 1.22 0.04 0.15 0.13 0.26 0.22 0.39 0.09 0.13 0.23 0.47-0.09 0.49-0.18 0.01-0.34-0.14-0.42-0.27-0.18-0.27-0.16-0.66-0.15-0.97 0-0.36 0.04-0.73-0.01-1.1-0.13-0.77-0.66-1.24-1.34-1.55-0.22-0.11-0.4-0.21-0.59-0.36q-0.14-0.12-0.32-0.19-0.29-0.1-0.58-0.2c-0.2-0.08-0.4-0.2-0.61-0.22-0.23-0.01-0.46 0-0.69-0.04-0.14-0.03-0.28-0.09-0.43-0.11-0.28-0.01-0.58 0.06-0.75 0.31-0.2 0.3-0.23 0.67-0.32 1.03-0.05 0.2-0.15 0.37-0.19 0.58q-0.05 0.32-0.05 0.66c-0.01 0.84 0.43 1.43 0.96 2.04 0.29 0.32 0.47 0.72 0.72 1.07 0.2 0.3 1.04 0.95 0.52 1.34-0.22 0.17-0.4 0.17-0.41 0.46-0.01 0.08 0 0.18 0.06 0.25q0.06 0.07 0.13 0.14c0.2 0.2 0.1 0.35 0.07 0.53q-0.02-0.01-0.04 0c-0.16 0.04-0.32 0.09-0.49 0.02-0.33-0.17-0.47-0.56-0.7-0.85-0.22-0.27-0.6-0.35-0.92-0.42-0.4-0.09-0.72-0.17-1.14-0.12-0.21 0.02-0.41-0.13-0.61-0.21-0.16-0.07-0.37-0.06-0.54-0.09-0.49-0.08-0.89-0.38-1.32-0.58-0.39-0.17-0.81-0.24-1.2-0.42-0.19-0.09-0.38-0.16-0.56-0.28-0.22-0.15-0.5-0.23-0.73-0.36-0.38-0.22-0.78-0.39-1.15-0.6q-0.25-0.11-0.51-0.16-0.35-0.09-0.7-0.19c-0.38-0.09-0.72-0.07-1.1-0.05-0.28 0.03-0.45 0.11-0.62 0.33q-0.14 0.2-0.3 0.4c-0.13 0.14-0.3 0.18-0.46 0.27-0.26 0.14-0.23 0.49-0.14 0.72 0.1 0.25 0.3 0.55 0.53 0.7 0.38 0.25 0.65 0.62 1.01 0.88 0.26 0.18 0.55 0.32 0.82 0.49 0.22 0.14 0.08 0.37-0.05 0.52-0.04 0.05-0.03 0.14-0.02 0.2q0.04 0.31 0.3 0.48 0.4 0.29 0.86 0.54c0.16 0.08 0.29 0.13 0.39 0.3q0.08 0.15 0.15 0.31c0.07 0.17 0.21 0.36 0.38 0.43 0.23 0.08 0.48 0.04 0.64 0.27 0.08 0.13 0.11 0.27 0.19 0.39 0.14 0.2 0.49 0.19 0.71 0.23 0.34 0.06 0.95 0.53 1.21 0.08 0.04-0.07 0.05-0.18 0.07-0.27 0.07-0.32 0.4-0.16 0.57-0.04 0.2 0.14 0.38 0.32 0.62 0.4 0.27 0.09 0.84-0.08 0.88-0.42 0.02-0.17 0.02-0.31 0.09-0.48q0.06-0.13 0.04-0.27c0-0.09-0.07-0.19-0.11-0.26q-0.05-0.07-0.11-0.16c-0.12-0.19-0.04-0.65 0.3-0.47v0.01c0.04 0.02 0.22 0.1 0.22 0.07q0 0.05 0.05 0.06c0.45 0.08 1.2 0.55 1.54 0.07 0.03-0.06 0.12-0.25 0.21-0.1 0.07 0.12 0.1 0.3 0.11 0.44q0.03 0.3-0.02 0.61c-0.03 0.34 0.05 0.57 0.33 0.79q0.16 0.12 0.36 0.1c0.31-0.04 0.35 0.19 0.45 0.4 0.02 0.05 0.28 0.6 0.03 0.56-0.18-0.04-0.35-0.16-0.55-0.17-0.18-0.02-0.48-0.03-0.54 0.21-0.06 0.29 0.1 0.56 0.28 0.78 0.53 0.64 1.42 1.16 1.47 2.08 0.01 0.24-0.35 0.26-0.37 0.5-0.01 0.35 0.26 0.52 0.49 0.72 0.16 0.14 0.25 0.34 0.34 0.52q0.16 0.28 0.34 0.54c0.24 0.39 0.52 0.71 0.83 1.05 0.26 0.29 0.59 0.46 0.87 0.74 0.34 0.35 0.61 0.75 0.92 1.13 0.37 0.44 0.7 0.93 1.07 1.38 0.24 0.28 0.64 0.72 1.04 0.72 0.58 0 0.67-0.82 0.71-1.27 0.19 0 0.27 0.02 0.44 0.17 0.07 0.06 0.21 0.12 0.32 0.12 0.27-0.02 0.44-0.15 0.61-0.37 0.11-0.15 0.22-0.3 0.4-0.37 0.25-0.1 0.47 0.09 0.61 0.27 0.17 0.24 0.29 0.44 0.58 0.54 0.22 0.07 0.64 0.11 0.85-0.02 0.29-0.22 0.45-0.82 0.89-0.76 0.27 0.04 0.48 0.39 0.69 0.54 0.16 0.11 0.43 0.17 0.59 0.05 0.19-0.16 0.27-0.28 0.54-0.23 0.24 0.04 0.38 0.16 0.49 0.37q0.1 0.22 0.2 0.44c0.15 0.28 0.35 0.41 0.3 0.76-0.02 0.12 0.02 0.17 0.09 0.27 0.1 0.12 0.6 0.3 0.34 0.54-0.14 0.13-0.22 0.36-0.09 0.53 0.09 0.12 0.18 0.19 0.32 0.25 0.29 0.14 0.31 0.43 0.31 0.71 0 0.44 0.01 0.79 0.17 1.21 0.14 0.38 0.45 0.68 0.61 1.06 0.15 0.36 0.21 0.59 0.54 0.86 0.15 0.13 0.34 0.22 0.51 0.32 0.26 0.14 0.34 0.37 0.48 0.61 0.2 0.32 0.59 0.38 0.93 0.41 0.34 0.02 0.57 0.04 0.76 0.37 0.08 0.14 0.23 0.22 0.37 0.28 0.51 0.24 0.88 0.67 1.09 1.18 0.18 0.43 0.11 0.92 0.3 1.35 0.13 0.31 0.44 0.55 0.76 0.66 0.31 0.11 0.56 0.23 0.73 0.53q0.13 0.25 0.3 0.47c0.17 0.2 0.49 0.38 0.75 0.44q0 0.02 0.01 0.04c0.11 0.21 0.19 0.4 0.14 0.65q-0.05 0.23-0.03 0.46c0.02 0.11-0.09 0.22-0.07 0.34 0.03 0.19 0.13 0.32 0.23 0.48 0.16 0.26 0.14 0.57 0.34 0.83 0.1 0.12 0.3 0.25 0.45 0.15q0.15-0.1 0.24-0.25 0.03-0.08 0.05-0.15c0.06-0.22 0.34-0.26 0.53-0.2q0.35 0.11 0.67 0.28c0.16 0.07 0.36 0.17 0.53 0.17 0.32-0.02 0.59-0.07 0.73 0.28q0.06 0.16 0.15 0.3c0.15 0.17 0.38 0.2 0.53 0.03 0.11-0.14-0.05-0.52 0.22-0.29 0.25 0.21 0.23 0.69 0.36 0.97 0.13 0.27 0.43 0.47 0.67 0.63 0.38 0.27 0.8 0.64 0.95 1.09 0.13 0.43 0.3 0.85 0.33 1.31q0.01 0.13-0.02 0.28c0 0.15 0.03 0.25-0.23 0.13-0.14-0.06-0.27-0.16-0.44-0.17-0.16-0.01-0.26 0-0.41-0.1 0 0-0.08-0.04-0.11-0.04-0.08 0-0.16 0-0.2 0.08-0.1 0.18-0.01 0.4 0.12 0.55 0.57 0.64 1.21 1.21 1.75 1.88 0.29 0.36 0.61 0.66 0.88 1.05 0.18 0.26 0.35 0.38 0.65 0.41 0.24 0.03 0.46 0 0.68 0.11q0.31 0.18 0.57 0.44c0.34 0.33 0.64 0.75 0.78 1.2 0.1 0.31-0.06 0.62 0.03 0.92 0.01 0.08 0.1 0.11 0.17 0.14 0.14 0.05 0.1-0.01 0.12 0.11q0.02 0.15 0.06 0.29c0.03 0.18 0.17 0.28-0.01 0.49q-0.06 0.06-0.09 0.14c-0.17 0.31 0.03 0.6 0.13 0.87 0.06 0.19-0.05 0.43-0.04 0.63 0 0.2 0.09 0.4 0.17 0.58 0.17 0.46 0 0.93 0.1 1.39 0.08 0.43-0.41 0.44-0.42 0.8-0.01 0.35 0.34 0.47 0.36 0.79q0.01 0.19 0.02 0.37c-0.01 0.16-0.33-0.06-0.39-0.09-0.25-0.12-0.63-0.08-0.87 0.01-0.43 0.18 0.12 0.58 0.29 0.7 0.33 0.24 0.52 0.49 0.64 0.9q0.06 0.29 0.12 0.58c0.05 0.23 0.15 0.44 0.21 0.67 0.07 0.28 0.09 0.57 0.35 0.75q0.2 0.11 0.4 0.23c0.26 0.15 0.27 0.42 0.38 0.68 0.09 0.23 0.47 0.27 0.67 0.31 0.47 0.1 0.44 0.69 0.7 1.02 0.18 0.25 0.53 0.28 0.82 0.29 0.18 0.01 0.35 0 0.52 0.07 0.12 0.06 0.24 0.19 0.34 0.27q0.31 0.23 0.67 0.4c0.24 0.1 0.49 0.13 0.73 0.22 0.23 0.11 0.39 0.36 0.52 0.56 0.25 0.38 0.47 0.55 0.92 0.52q0.06 0 0.07-0.06v-0.08q0-0.03-0.02-0.05 0.02-0.01 0.02-0.04-0.01-0.23-0.05-0.47c0-0.09 0.23-0.11 0.29-0.12 0.17-0.05 0.03 0.16 0.02 0.28-0.02 0.09 0.06 0.23 0.12 0.29 0.57 0.56 1.44 0.45 2.13 0.71 0.45 0.17 0.89 0.41 1.32 0.62q0.69 0.32 1.35 0.69c0.81 0.45 1.54 1.03 2.33 1.51 0.34 0.21 0.46 0.48 0.61 0.83 0.07 0.16 0.23 0.31 0.39 0.2 0.13-0.08 0.14-0.63 0.36-0.36 0.06 0.09 0.17 0.06 0.26 0.06 0.05 0 0.47-0.01 0.38 0.1-0.04 0.06-0.24 0.11-0.3 0.17q-0.09 0.06-0.1 0.17c-0.03 0.28 0.12 0.43 0.34 0.57 0.34 0.21 0.49 0.52 0.73 0.83 0.08 0.1 0.28 0.25 0.42 0.14 0.16-0.13 0.18-0.36 0.2-0.54q0.05-0.51 0.05-1.03v-0.05q0.02-0.48 0.21-0.93c0.09-0.22 0.23-0.43 0.29-0.67 0.11-0.41-0.18-0.68-0.52-0.84-0.18-0.07-0.32-0.12-0.39-0.34-0.04-0.13-0.05-0.28-0.09-0.42-0.05-0.14-0.21-0.3-0.35-0.34-0.47-0.16-1.33 0.07-1.36-0.67-0.02-0.36 0.09-0.57 0.41-0.73 0.26-0.12 0.54-0.19 0.8-0.31 0.46-0.21 0.58-0.59 0.55-1.07-0.03-0.54-0.38-1.01-0.66-1.45q-0.27-0.41-0.42-0.87c-0.09-0.29-0.08-0.61-0.08-0.92q0.04-0.03 0.04-0.11-0.01-0.03-0.03-0.05c0.08-0.26 0.42-0.3 0.68-0.31q0.48-0.02 0.92-0.22c0.47-0.2 1.1-0.15 1.07-0.81-0.01-0.23-0.17-0.42-0.32-0.59-0.31-0.35-0.4-0.66-0.43-1.12-0.03-0.43-0.05-0.84 0.04-1.27 0.05-0.26 0.08-0.45 0.27-0.67q0.14-0.16 0.21-0.37c0.11-0.3-0.01-0.66-0.03-0.97 0-0.17 0.05-0.34 0.06-0.5 0-0.14-0.07-0.3-0.14-0.42-0.18-0.38-0.4-0.72-0.55-1.11-0.18-0.49-0.03-0.87 0.2-1.3 0.14-0.28 0.31-0.55 0.3-0.86-0.01-0.19-0.04-0.37-0.04-0.56 0.01-0.2 0.05-0.39 0.06-0.59 0.02-0.37-0.01-0.74 0.02-1.11q0.01-0.35 0.01-0.71c0-0.15-0.09-0.29-0.09-0.45q0.04-0.01 0.05-0.06c0-0.13-0.12-0.19-0.17-0.31-0.07-0.15-0.12-0.25-0.24-0.38-0.27-0.29-0.68-0.41-1.06-0.49-1.05-0.24-2.02-0.83-2.9-1.43-0.44-0.29-0.71-0.76-1.12-1.09-0.32-0.26-0.74-0.34-1.13-0.46-0.52-0.18-0.7-0.61-1-1.01q-0.15-0.19-0.35-0.32-0.18-0.14-0.37-0.27c-0.05-0.03-0.37-0.18-0.38-0.21q0-0.03-0.02-0.04c-0.03-0.09-0.13-0.15-0.18-0.22q0.04-0.07-0.03-0.09-0.01-0.03-0.03-0.04-0.01 0-0.01 0-0.02-0.05-0.07-0.04c-0.04-0.07-0.1-0.15-0.2-0.15q-0.1 0-0.18 0.05c-0.04 0.02-0.23 0.25-0.27 0.18-0.13-0.18-0.13-0.7-0.5-0.48-0.12 0.07-0.14 0.26-0.14 0.38q0.01 0.22-0.18-0.03-0.01-0.11 0.01-0.23 0-0.21-0.06-0.39c-0.07-0.25-0.12-0.47-0.29-0.67-0.21-0.25-0.48-0.43-0.67-0.7-0.18-0.24-0.25-0.57-0.39-0.83-0.13-0.26-0.35-0.46-0.56-0.65-0.3-0.24-0.56-0.46-0.69-0.83-0.09-0.24-0.13-0.53-0.3-0.75-0.19-0.24-0.43-0.45-0.59-0.72-0.2-0.32-0.14-0.72-0.16-1.08-0.01-0.24-0.2-0.45-0.35-0.64-0.15-0.18-0.62-0.52-0.63-0.78 0.01-0.26 0.06-0.41 0.23-0.61q0.09-0.12 0.12-0.25c0.06-0.25-0.25-0.37-0.43-0.41-0.21-0.05-0.36-0.22-0.53-0.34q-0.25-0.18-0.51-0.34c-0.3-0.18-0.49-0.11-0.8-0.01-0.3 0.1-0.4-0.51-0.62-0.66-0.25-0.18-0.81 0-1.1-0.04-0.23-0.03-0.55-0.04-0.74 0.12-0.18 0.15-0.26 0.42-0.56 0.37-0.19-0.03-0.38-0.21-0.56-0.27-0.19-0.08-0.45-0.07-0.58-0.25-0.07-0.1 0.18-0.25 0.24-0.29 0.14-0.1 0.33-0.18 0.42-0.33 0.22-0.39-0.51-0.54-0.7-0.63-0.36-0.17-0.04-0.62-0.13-0.92q-0.04-0.11-0.12-0.17-0.07-0.05-0.15-0.1c-0.2-0.13-0.22-0.36-0.19-0.59 0.06-0.35-0.04-0.75-0.06-1.11 0-0.2 0.05-0.41 0.05-0.62q0-0.4-0.02-0.81c-0.03-0.3-0.03-0.59-0.32-0.75-0.15-0.09-0.18-0.15-0.34-0.11q-0.22 0.07-0.37 0.25c-0.07 0.09-0.26 0.34-0.24 0.06 0-0.14 0.03-0.27-0.03-0.41q-0.15-0.29-0.34-0.56c-0.09-0.15-0.31-0.58-0.15-0.75q0.03-0.03 0.01-0.07 0.01 0 0.03-0.01c0.54-0.53 1.43 0.16 1.81 0.56 0.25 0.26 0.45 0.57 0.65 0.87q0.27 0.36 0.58 0.68c0.2 0.22 0.43 0.39 0.58 0.65 0.18 0.28 0.07 0.55 0 0.84-0.07 0.35 0.19 0.63 0.56 0.55 0.17-0.04 0.53-0.14 0.63-0.28 0.1-0.12 0.23-0.33 0.41-0.21 0.05 0.04 0.12 0.09 0.19 0.09 0.21-0.01 0.31-0.26 0.54-0.1 0.14 0.1 0.33 0.02 0.44-0.08 0.03-0.03 0.09-0.11 0.1-0.15q0.04-0.23 0.33 0.01c0.06 0.1 0.06 0.25 0.07 0.37 0.02 0.26 0.06 0.44 0.22 0.66 0.22 0.31 0.46 0.53 0.4 0.95-0.03 0.25 0.09 0.37 0.18 0.58q0.03 0.03 0.06 0.03h0.08q0.05 0.02 0.1 0.03c0.03 0.02 0.09 0.01 0.09-0.03 0.01-0.01 0.13-0.12 0.14-0.14q0.09-0.12 0.14-0.26c0.13-0.31 0.14-0.65 0.37-0.93 0.44-0.53 1.29-0.05 1.85-0.2q0.16-0.06 0.29-0.17c0.24-0.2 0.35 0.02 0.48 0.15 0.1 0.11 0.27 0.14 0.39 0.06 0.09-0.04 0.14-0.14 0.21-0.22 0.15-0.19 0.3 0.02 0.41 0.1 0.12 0.09 0.42-0.15 0.46-0.08 0.23 0.53 0.86 0.74 1.37 0.49q0.14-0.07 0.3-0.12c0.23-0.08 0.39 0.15 0.5 0.3q0.1 0.16 0.25 0.28c0.15 0.11 0.34 0.16 0.5 0.25 0.22 0.12 0.22 0.35 0.31 0.54 0.16 0.3 0.93 1.1 1.23 0.6 0.14-0.22-0.02-0.63 0.24-0.73 0.08-0.03 0.1-0.09 0.11-0.16q0.01-0.07-0.01-0.12c-0.03-0.21 0.15-0.19 0.23-0.28 0.34-0.38-0.43-0.55-0.47-0.85-0.02-0.11 0.13-0.28 0.26-0.22q0.09 0.05 0.15 0.13 0.13 0.15 0.25 0.3c0.1 0.11 0.28 0.28 0.45 0.23 0.12-0.04 0.15-0.14 0.16-0.25q0-0.15 0-0.28c0-0.06 0.02-0.3 0.18-0.08 0.07 0.1 0.09 0.24 0.11 0.36 0.02 0.13-0.06 0.26-0.03 0.4 0.05 0.28-0.05 0.38-0.31 0.39-0.21 0-0.47-0.04-0.66 0.1-0.15 0.11-0.08 0.33-0.01 0.47 0.12 0.27 0.38 0.29 0.64 0.27h0.09q0.12-0.01 0.17 0.05 0.13 0.05 0.11 0.2 0 0.05-0.05 0.07-0.03 0.01-0.06 0.01-0.01 0.01-0.01 0.02-0.13-0.01-0.26-0.03-0.18-0.03-0.36-0.03c-0.15 0.01-0.32 0.1-0.42-0.14q-0.01-0.05-0.05-0.08c-0.05-0.05-0.11-0.1-0.19-0.08-0.27 0.08-0.15 0.75 0.08 0.83 0.25 0.09 0.59 0.03 0.85 0 0.24-0.04 0.51 0.01 0.75 0.06 0.19 0.05 0.38 0.25 0.55 0.35 0.18 0.1 0.41 0.04 0.54-0.12 0.13-0.17 0.02-0.45-0.05-0.63-0.13-0.35-0.29-0.66-0.29-1.05-0.02-0.37 0.21-0.86 0.71-0.58 0.08 0.05 0.18 0.12 0.28 0.1 0.38-0.07 0.23-0.81 0.25-1.07q0.01-0.27 0.14-0.52c0.12-0.21 0.4-0.2 0.61-0.21q0.5 0 0.87-0.34c0.34-0.31 0.54-0.79 0.56-1.25 0.01-0.54-0.38-1.05-0.75-1.41-0.2-0.2-0.46-0.34-0.61-0.59-0.14-0.23-0.07-0.52-0.2-0.76q-0.07-0.1-0.17-0.19-0.22-0.27 0.1-0.38 0.13 0.04 0.21 0.12c0.17 0.15 0.25 0.61 0.25 0.83q0 0.01 0.01 0.03c0.08 0.32 0.64 0.63 0.91 0.7 0.46 0.13 1.11-0.09 1.46-0.38 0.19-0.15 0.25-0.42 0.28-0.64 0.04-0.29 0.1-0.56 0.23-0.83 0.17-0.34 0.54-0.35 0.81-0.51q0.01 0 0.05-0.02 0.01-0.01 0.01-0.01c0.09-0.06 0.23-0.18 0.25-0.32v0.01c0.04-0.18 0-0.39 0-0.56q0-0.72 0.06-1.42c0.08-0.9-0.02-1.78 0.44-2.59 0.45-0.79 1.4-1.18 2.21-1.48 0.29-0.11 0.69-0.2 0.93-0.41q0.16-0.15 0.26-0.35 0.19-0.33 0.44-0.63c0.51-0.63 1-1.24 1.17-2.04 0.15-0.81 0.74-1.62 1.48-1.99 0.77-0.4 1.45-0.99 2.04-1.62 0.25-0.27 0.53-0.55 0.74-0.86 0.22-0.32 0.23-0.65 0.23-1.02 0.01-0.74 0.11-1.48 0.64-2.04 0.45-0.48 1.05-0.69 1.08-1.43 0.03-0.34-0.12-0.67-0.15-1.01-0.04-0.51 0.17-0.82 0.64-1 0.37-0.14 0.75-0.22 1.1-0.4 0.39-0.2 0.75-0.41 1.16-0.57q0.28-0.13 0.45-0.38c0.15-0.24 0.21-0.83 0.55-0.86 0.35-0.04 0.92 0.11 0.89-0.44 0-0.24-0.12-0.47-0.17-0.7q-0.12-0.64-0.25-1.29c-0.13-0.69-0.24-1.49-0.07-2.18q0.01-0.02 0-0.04 1.46-1.79 2.91-3.59 0.55-0.66 1.08-1.32c-0.04 0.05 0.03 0.02 0.11 0.02h0.91c0.11 0 0.29-0.34 0.34-0.41q1.18-1.56 2.35-3.11 0.01-0.01 0.01-0.02 0.04 0 0.04-0.04c0 0.06 0.79 0.09 0.88 0.09 0.36 0 0.87-0.09 1.17 0.17 0.25 0.21 0.35 0.66 0.53 0.93 0.18 0.28 0.45 0.41 0.72 0.57 0.2 0.13 0.36 0.28 0.39 0.52 0.02 0.27-0.22 0.52-0.38 0.71-0.23 0.27-0.34 0.55-0.32 0.91 0.03 0.76 0.64 1.38 1.03 1.99q0.39 0.59 0.68 1.23c0.14 0.32 0.17 0.58 0.01 0.9-0.12 0.22-0.37 0.34-0.57 0.45-0.33 0.19-0.68 0.37-1 0.57-0.21 0.13-0.19 0.54-0.21 0.75-0.03 0.2 0 0.38 0.02 0.57 0.02 0.18 0.15 0.33 0.16 0.52 0.03 0.2-0.18 0.44-0.23 0.64-0.06 0.25-0.14 0.48-0.18 0.72-0.06 0.33-0.06 0.71-0.01 1.04 0.06 0.41 0.33 0.73 0.52 1.08 0.62 1.15 0.41 2.78 1.58 3.62 0.31 0.22 0.69 0.25 0.99 0.49 0.35 0.28 0.59 0.69 0.85 1.05q0.35 0.5 0.83 0.89 0.2 0.18 0.45 0.27c0.25 0.09 0.42 0.04 0.68 0.02q0.04-0.01 0.05-0.05c0.88-0.05 1.33-0.89 2.15-1.06 0.6-0.13 1.51 0.13 1.81-0.6 0.06-0.16 0.08-0.34 0.15-0.5 0.06-0.13 0.2-0.33 0.38-0.24q0.12 0.07 0.23 0.14c0.33 0.18 0.7 0.3 1.05 0.43 0.67 0.25 0.98-0.33 1.05-0.91 0.05-0.37 0.03-0.76 0.29-1.06 0.3-0.36 0.82-0.48 1.26-0.59 0.39-0.08 0.76-0.24 1.13-0.39 0.2-0.08 0.6 0.14 0.77 0.22 0.2 0.08 0.42 0.13 0.62 0.21 0.34 0.13 0.72 0.19 1.07 0.1q0.2-0.07 0.4-0.17c0.24-0.12 0.46-0.14 0.72-0.12 0.63 0.05 1.33 0.17 1.88-0.23 0.31-0.23 0.44-0.64 0.67-0.94 0.27-0.35 0.34-0.62 0.34-1.05 0.01-0.21 0.05-0.4 0.06-0.6 0-0.16-0.05-0.32-0.07-0.47-0.05-0.24-0.08-0.54 0.08-0.74 0.13-0.16 0.4-0.26 0.59-0.32 0.27 0.05 0.52 0.3 0.81 0.14 0.3-0.17 0.5-0.53 0.73-0.79 0.3-0.35 0.63-0.61 1.12-0.63 0.43-0.02 0.86 0.18 1.29 0.17 0.51-0.01 0.53-0.68 0.67-1.03 0.16-0.38 0.29-0.8 0.31-1.21 0.01-0.43-0.21-0.86-0.4-1.23-0.2-0.37-0.48-0.69-0.68-1.06-0.21-0.41-0.1-1.04-0.06-1.49 0.05-0.47 0.25-0.97 0.68-1.19 0.15-0.08 0.35-0.07 0.5-0.14 0.13-0.05 0.21-0.2 0.26-0.31 0.14-0.37 0.22-0.72 0.31-1.1 0.06-0.19 0.16-0.39 0.23-0.57 0.14-0.37 0.37-0.49 0.75-0.51 0.25-0.01 0.59-0.14 0.78-0.31 0.22-0.2 0.16-0.44 0.02-0.67-0.18-0.28-0.48-0.51-0.72-0.72q-0.46-0.41-0.95-0.79c-0.32-0.27-0.43-0.53-0.42-0.95 0-0.18-0.04-0.46-0.24-0.5-0.26-0.06-0.55-0.02-0.8 0.03-0.51 0.1-1.03-0.25-1.45-0.51q-0.57-0.35-1-0.84c-0.26-0.3-0.59-0.51-0.85-0.82-0.27-0.3-0.04-0.64-0.18-0.97-0.11-0.25-0.73-0.37-0.58-0.7 0.14-0.31 0.84-0.55 0.49-0.99-0.19-0.22-0.43-0.1-0.66-0.21q-0.1-0.03-0.2-0.06c-0.34-0.09-0.19-0.3-0.17-0.46 0.03-0.24-0.02-0.49 0.03-0.72 0.08-0.37 0.06-0.77 0.11-1.14 0.04-0.38 0.02-0.83 0.15-1.19q0.01 0 0.01 0 0.03-0.01 0.05-0.05c0-0.03 0.03-0.07 0.06-0.07q0.04-0.01 0.06-0.04c0.08-0.15 0.4-0.15 0.55-0.16q0.28-0.04 0.53-0.14c0.4-0.17 0-0.79 0.32-0.97 0.23-0.14 0.51-0.21 0.76-0.3 0.35-0.13 0.66-0.16 1.02-0.03 0.18 0.07 0.38 0.17 0.59 0.18q0.42 0.03 0.85 0.02c0.43-0.01 1.11-0.37 1.4 0.08 0.2 0.3 0.24 0.71 0.52 0.93 0.38 0.29 0.96 0.46 1.41 0.62 0.57 0.2 1.19 0.33 1.73 0.62q0.01 0.04 0.06 0.04h0.04q0.05-0.01 0.06-0.05 0.03-0.01 0.05-0.04c0.1-0.27 0.04-0.55 0.04-0.84 0-0.25 0.14-0.38 0.38-0.43q0.21-0.07 0.43-0.04c0.19 0.03 0.28 0.28 0.35 0.43 0.16 0.35 0.42 0.67 0.75 0.87 0.39 0.26 0.78 0.29 1.04 0.75 0.11 0.2 0.2 0.51 0.48 0.5 0.25-0.01 0.46-0.44 0.62-0.59 0.28-0.27 0.83 0.55 1.14 0.56q0.21 0.01 0.37-0.12c0.09-0.07 0.23-0.26 0.35-0.34q0.03 0.04 0.08 0 0.02-0.02 0.04-0.04 0.02-0.03 0.01-0.06 0.08-0.04 0.14-0.09c0.13-0.13 0.39-0.17 0.56-0.27 0.23-0.12 0.43-0.26 0.7-0.26 0.16 0.01 0.33 0.06 0.48-0.01 0.31-0.14 0.5-0.4 0.66-0.68q0.15-0.26 0.3-0.52c0.15-0.24 0.34-0.38 0.56-0.56 0.29-0.24 0.34-0.37 0.4-0.73 0.05-0.41 0-0.83 0-1.24q0-0.54 0-1.08c-0.01-0.38 0-0.58-0.28-0.85q-0.21-0.19-0.36-0.43c-0.06-0.1-0.18-0.31 0.03-0.39 0.09-0.03 0.23 0.01 0.32 0.02q0.37 0.05 0.75-0.02c0.17-0.03 0.38-0.12 0.44-0.31 0.05-0.13 0.04-0.27 0.04-0.41q0.02-0.31 0.12-0.61c0.09-0.34 0.21-0.21 0.35 0q0.11 0.15 0.22 0.29c0.14 0.16 0.33 0.35 0.56 0.24 0.23-0.1 0.34-0.32 0.43-0.53 0.14-0.31 0.24-0.57 0.53-0.77 0.17-0.12 0.37-0.21 0.58-0.22 0.27 0 0.28 0.34 0.28 0.52 0 0.18-0.01 0.44 0.19 0.51 0.28 0.12 0.56 0.01 0.74-0.21q0.14-0.18 0.25-0.38c0.1-0.19 0.27-0.31 0.41-0.48q0-0.01 0-0.02 0.01 0 0.01 0 0 0 0-0.01 0 0 0.01-0.01 0-0.01 0-0.01 0.01-0.06 0.06-0.07c0.16 0 0.23 0.01 0.36 0.13 0.16 0.15 0.36 0.34 0.61 0.29 0.28-0.06 0.46-0.29 0.56-0.55 0.14-0.39-0.14-0.73-0.27-1.06-0.19-0.43 0.02-0.92 0.16-1.34 0.16-0.47 0.33-0.93 0.44-1.42zm-0.78 2.62c0.07 0.42 0.43 0.7 0.33 1.16-0.1 0.41-0.58 0.6-0.88 0.29q-0.11-0.12-0.26-0.23c-0.13-0.09-0.19-0.02-0.31-0.02-0.05 0-0.08 0.06-0.11 0.09-0.04 0-0.09 0.03-0.08 0.08q0 0.01 0 0.02 0 0.02 0 0.03c-0.09 0.11-0.21 0.2-0.3 0.32q-0.12 0.19-0.22 0.38-0.18 0.3-0.53 0.32c-0.27 0.01-0.27-0.24-0.26-0.43 0-0.5-0.27-0.75-0.77-0.56-0.57 0.21-0.69 0.66-0.95 1.16-0.55 1.03-0.87-0.74-1.28-0.5-0.2 0.12-0.23 0.43-0.28 0.63q-0.05 0.21-0.05 0.44c-0.01 0.29-0.1 0.44-0.39 0.51-0.27 0.06-0.57 0.03-0.83 0-0.2-0.03-0.43 0.01-0.45 0.24-0.03 0.23 0.2 0.51 0.35 0.66 0.19 0.19 0.37 0.32 0.39 0.62q0 0.32 0.01 0.65c0.02 0.36-0.03 0.74-0.01 1.1 0.01 0.39 0.11 1.04-0.2 1.33-0.34 0.3-0.62 0.51-0.85 0.91-0.26 0.44-0.52 1.05-1.13 0.99-0.45-0.05-0.71 0.24-1.11 0.37q-0.1 0.03-0.2 0.07c-0.03 0.02-0.17 0.15-0.18 0.15q-0.11 0.02-0.15 0.11-0.11 0.07-0.2 0.16-0.1 0.07-0.17 0.17c-0.17 0.21-0.45 0.13-0.62-0.01-0.2-0.18-0.49-0.59-0.81-0.48-0.28 0.1-0.64 0.98-0.94 0.4-0.19-0.37-0.39-0.61-0.78-0.79-0.22-0.1-0.43-0.18-0.62-0.34-0.21-0.19-0.36-0.44-0.49-0.68-0.19-0.32-0.31-0.57-0.74-0.49-0.28 0.05-0.54 0.11-0.63 0.41-0.1 0.32 0.06 0.66-0.06 0.97-0.52-0.28-1.12-0.42-1.68-0.6q-0.53-0.18-1.03-0.41c-0.31-0.15-0.55-0.25-0.67-0.58-0.12-0.37-0.31-0.77-0.74-0.82-0.2-0.03-0.42 0.04-0.61 0.09-0.34 0.09-0.72 0.05-1.07 0.04-0.34-0.01-0.63-0.14-0.95-0.25-0.27-0.08-0.51-0.02-0.78 0.06q-0.43 0.12-0.82 0.31c-0.12 0.05-0.31 0.15-0.31 0.3 0.01 0.27 0.14 0.64-0.2 0.73q-0.33 0.09-0.68 0.14-0.11 0.01-0.21 0.06c0 0-0.15 0.1-0.09 0.1-0.09 0-0.13 0.13-0.17 0.13q-0.05 0.01-0.05 0.05c-0.13 0.33-0.1 0.71-0.15 1.05-0.05 0.47-0.05 0.96-0.14 1.41-0.04 0.17 0 0.4 0 0.57 0 0.16-0.07 0.28-0.05 0.44 0.02 0.11 0.12 0.17 0.21 0.21 0.12 0.05 0.32 0.14 0.45 0.14 0.24-0.01 0.6 0.07 0.45 0.41-0.06 0.12-0.2 0.22-0.3 0.3-0.18 0.14-0.33 0.33-0.25 0.57 0.07 0.25 0.45 0.24 0.58 0.44 0.11 0.17 0.03 0.45 0.04 0.64q0.01 0.2 0.14 0.36c0.24 0.31 0.54 0.53 0.83 0.8 0.16 0.14 0.28 0.31 0.43 0.46q0.27 0.23 0.57 0.42 0.52 0.36 1.12 0.56c0.35 0.13 0.74-0.03 1.12-0.03 0.42 0 0.22 0.74 0.35 0.99 0.17 0.32 0.48 0.52 0.75 0.75 0.33 0.28 0.67 0.55 0.99 0.86 0.17 0.16 0.34 0.32 0.4 0.55 0.1 0.34-0.59 0.55-0.79 0.56-0.23 0.02-0.48 0.05-0.66 0.21-0.21 0.17-0.26 0.53-0.36 0.76-0.14 0.33-0.17 0.7-0.3 1.03-0.09 0.25-0.15 0.48-0.43 0.56-0.16 0.04-0.29 0.04-0.44 0.12-0.52 0.28-0.67 1.02-0.68 1.56-0.01 0.36-0.07 0.71 0.01 1.06 0.07 0.33 0.34 0.63 0.53 0.91q0.39 0.55 0.57 1.2c0.12 0.47-0.07 0.95-0.22 1.39q-0.11 0.35-0.22 0.71c-0.16 0.47-0.65 0.32-1.02 0.24-0.65-0.13-1.18-0.09-1.67 0.39-0.21 0.2-0.45 0.46-0.61 0.71q-0.27 0.41-0.71 0.21c-0.01 0-0.2-0.08-0.27-0.1q-0.01-0.01-0.02-0.01-0.02-0.03-0.05-0.04-0.01 0-0.03-0.01c-0.06 0-0.09 0.05-0.08 0.09-0.21 0.08-0.44 0.19-0.58 0.37-0.16 0.19-0.12 0.51-0.09 0.73q0.05 0.26 0.08 0.51c0.03 0.19-0.05 0.41-0.05 0.61 0 0.26-0.01 0.52-0.15 0.75-0.11 0.19-0.28 0.35-0.39 0.55-0.23 0.4-0.44 0.69-0.92 0.8-0.37 0.09-0.77 0.04-1.15 0-0.31-0.03-0.58-0.04-0.87 0.09q-0.25 0.13-0.53 0.22c-0.29 0.08-0.64-0.03-0.92-0.13q-0.57-0.2-1.15-0.42c-0.15-0.05-0.26-0.03-0.4 0.03q-0.29 0.11-0.58 0.22c-0.66 0.28-1.49 0.26-1.91 0.95-0.33 0.55 0.04 2.11-1.08 1.75-0.36-0.12-0.77-0.29-1.1-0.47-0.26-0.15-0.38-0.21-0.6 0.04-0.2 0.22-0.19 0.54-0.33 0.8-0.24 0.48-1.03 0.31-1.45 0.36q-0.52 0.05-0.94 0.36c-0.43 0.34-0.82 0.71-1.39 0.74q-0.04 0-0.06 0.04c-0.26 0.02-0.44 0.07-0.7-0.05-0.2-0.08-0.38-0.24-0.54-0.39q-0.42-0.4-0.74-0.89c-0.38-0.54-0.73-0.97-1.37-1.18-1.26-0.43-1.35-2.16-1.69-3.24q-0.13-0.41-0.36-0.78-0.19-0.28-0.32-0.6c-0.08-0.24-0.06-0.54-0.06-0.79 0-0.45 0.12-0.97 0.32-1.39q0.1-0.18 0.13-0.38c0.03-0.2-0.14-0.4-0.17-0.6-0.05-0.38-0.07-1.03 0.32-1.24q0.53-0.27 1.04-0.59c0.26-0.17 0.41-0.36 0.5-0.66 0.1-0.35-0.08-0.73-0.25-1.03-0.26-0.47-0.52-0.93-0.84-1.36-0.3-0.41-0.59-0.83-0.7-1.34-0.07-0.32 0-0.65 0.2-0.91q0.2-0.23 0.37-0.5c0.17-0.27 0.12-0.57-0.09-0.8-0.28-0.3-0.68-0.38-0.93-0.72-0.23-0.32-0.3-0.75-0.61-1.01-0.23-0.21-0.63-0.16-0.92-0.16q-0.33 0.01-0.67-0.02c-0.17-0.02-0.39-0.08-0.56-0.06q-0.04 0.01-0.04 0.05-0.01 0.01-0.01 0.04-0.02 0-0.04 0.02-1.3 1.73-2.61 3.46h-1.02c-0.1 0-0.2 0.18-0.25 0.26q-0.81 0.99-1.61 1.98l-2.24 2.76q-0.04 0.04 0 0.09-0.02 0.01-0.03 0.11-0.03 0.35-0.03 0.69 0.01 0.7 0.15 1.39 0.13 0.7 0.27 1.4c0.06 0.34 0.36 0.86-0.24 0.86-0.23 0-0.48-0.05-0.66 0.13-0.24 0.23-0.26 0.64-0.46 0.9-0.15 0.18-0.38 0.24-0.59 0.32q-0.26 0.11-0.5 0.25c-0.47 0.27-0.95 0.43-1.46 0.62-0.29 0.1-0.52 0.22-0.65 0.51-0.13 0.28-0.1 0.62-0.05 0.92 0.11 0.53 0.21 0.99-0.2 1.42-0.28 0.28-0.63 0.46-0.87 0.78-0.46 0.59-0.53 1.34-0.54 2.07 0 0.5-0.14 0.83-0.48 1.2-0.34 0.36-0.66 0.73-1.03 1.06q-0.43 0.38-0.89 0.71c-0.29 0.21-0.63 0.33-0.93 0.54-0.44 0.31-0.83 0.88-1.02 1.38-0.12 0.3-0.15 0.63-0.26 0.94-0.13 0.37-0.38 0.7-0.61 1.02-0.23 0.32-0.51 0.6-0.73 0.93q-0.11 0.17-0.22 0.37c-0.14 0.23-0.43 0.32-0.67 0.42-1.17 0.45-2.45 0.9-2.88 2.21-0.22 0.64-0.18 1.32-0.21 1.99-0.02 0.42-0.08 0.83-0.08 1.25 0 0.2 0.08 0.61 0 0.84q-0.02 0.06-0.08 0.11c-0.2 0.26-0.56 0.19-0.79 0.41-0.25 0.23-0.34 0.54-0.42 0.85-0.05 0.19-0.06 0.38-0.11 0.56-0.1 0.37-0.44 0.46-0.75 0.59-0.33 0.13-0.71 0.13-1.04-0.03-0.17-0.08-0.52-0.3-0.55-0.51-0.01-0.4-0.14-1.01-0.6-1.08-0.15-0.03-0.24 0.07-0.29 0.19-0.11 0.34 0.32 0.52 0.33 0.83 0.02 0.27 0.09 0.49 0.27 0.7 0.12 0.14 0.27 0.23 0.41 0.36q0.31 0.27 0.53 0.61c0.54 0.81 0.11 2.04-0.88 2.22-0.25 0.05-0.59-0.02-0.79 0.17-0.18 0.19-0.23 0.45-0.25 0.7-0.02 0.26 0.02 0.51-0.02 0.76-0.05 0.3-0.36 0.07-0.51 0-0.09-0.04-0.23-0.04-0.32 0.01-0.62 0.3-0.38 1.19-0.17 1.68q0.11 0.23 0.17 0.46c0.04 0.21-0.08 0.4-0.34 0.35-0.08-0.01-0.17-0.1-0.24-0.15-0.31-0.23-0.62-0.29-0.99-0.32-0.27-0.02-1.12 0.26-1.12-0.21 0-0.06 0-0.54 0.14-0.21 0.03 0.08 0.11 0.17 0.2 0.18 0.14 0.02 0.26-0.01 0.39-0.01q0.24 0 0.46 0.05c0.16 0.03 0.37-0.01 0.37-0.22 0.01-0.2-0.14-0.34-0.33-0.36-0.17-0.03-0.34 0.01-0.51-0.01-0.15-0.02-0.24-0.22-0.27-0.35-0.07-0.22 0.17-0.24 0.29-0.24 0.19-0.02 0.45 0.04 0.63-0.06 0.22-0.14 0.14-0.34 0.12-0.56-0.01-0.13 0.05-0.24 0.03-0.38q-0.04-0.19-0.12-0.35c-0.06-0.11-0.23-0.22-0.34-0.11-0.1 0.11-0.08 0.26-0.08 0.4 0 0.13 0.02 0.3-0.18 0.25-0.14-0.04-0.25-0.22-0.34-0.33-0.22-0.27-0.6-0.55-0.75-0.03-0.03 0.15 0.08 0.28 0.19 0.37q0.12 0.09 0.24 0.18c0.2 0.16 0.05 0.25-0.09 0.37-0.12 0.11-0.08 0.42-0.22 0.46-0.18 0.04-0.15 0.21-0.13 0.36 0.03 0.22-0.05 0.59-0.43 0.43-0.16-0.08-0.29-0.24-0.42-0.36q-0.22-0.19-0.3-0.48-0.02-0.12-0.08-0.21c-0.2-0.24-0.53-0.27-0.76-0.47-0.18-0.16-0.27-0.46-0.53-0.53-0.23-0.06-0.4 0.02-0.6 0.13-0.43 0.21-1 0.01-1.18-0.45q-0.01 0-0.01-0.01c-0.07-0.11-0.15-0.16-0.27-0.08-0.14 0.11-0.22 0.15-0.38 0q-0.08-0.08-0.2-0.09c-0.26 0-0.37 0.58-0.68 0.24-0.1-0.1-0.31-0.33-0.49-0.21-0.15 0.11-0.27 0.22-0.46 0.27-0.22 0.07-0.52 0-0.73-0.05-0.26-0.06-0.54-0.02-0.79 0.07-0.24 0.09-0.38 0.28-0.48 0.5-0.09 0.2-0.19 0.95-0.44 0.99q-0.01 0-0.02 0.01-0.03-0.02-0.1-0.02c-0.12 0-0.19-0.3-0.2-0.38-0.02-0.13 0.03-0.24 0.01-0.38-0.04-0.24-0.17-0.43-0.33-0.61-0.12-0.16-0.23-0.29-0.27-0.49-0.03-0.14-0.02-0.28-0.04-0.42-0.03-0.16-0.12-0.44-0.32-0.46-0.28-0.04-0.25 0.15-0.38 0.32-0.19 0.23-0.48-0.19-0.68 0.02-0.29 0.29-0.35-0.09-0.61-0.03q-0.1 0.04-0.16 0.14c-0.14 0.21-0.38 0.32-0.61 0.4-0.3 0.1-0.54-0.07-0.49-0.37q0.03-0.16 0.08-0.32 0.07-0.28-0.05-0.54c-0.13-0.25-0.32-0.43-0.52-0.63q-0.41-0.39-0.75-0.86c-0.37-0.53-0.72-1.01-1.28-1.35-0.4-0.24-0.95-0.39-1.32-0.03q-0.03 0.04-0.01 0.07-0.02 0-0.03 0.02c-0.14 0.15-0.07 0.46-0.01 0.63 0.13 0.39 0.53 0.67 0.49 1.11-0.01 0.14-0.03 0.38 0.17 0.38 0.08 0 0.14-0.08 0.18-0.13 0.08-0.1 0.34-0.49 0.51-0.36 0.2 0.16 0.37 0.2 0.39 0.5q0.02 0.35 0.03 0.69c0.02 0.45-0.05 0.89-0.01 1.35q0.02 0.3 0.04 0.61c0.01 0.16-0.05 0.31-0.01 0.47 0.1 0.38 0.58 0.39 0.47 0.84-0.05 0.21-0.11 0.42 0.05 0.6 0.14 0.16 0.42 0.2 0.6 0.28 0.39 0.17 0.06 0.4-0.14 0.53-0.14 0.08-0.31 0.18-0.36 0.35-0.04 0.14 0.12 0.25 0.22 0.31 0.14 0.08 0.31 0.09 0.46 0.14 0.21 0.06 0.37 0.2 0.57 0.27 0.22 0.09 0.41-0.08 0.53-0.24 0.3-0.42 0.86-0.2 1.29-0.24 0.29-0.04 0.64-0.03 0.72 0.3 0.04 0.12 0.08 0.26 0.19 0.34q0.13 0.1 0.29 0.07c0.3-0.07 0.45-0.19 0.76-0.02 0.37 0.18 0.67 0.6 1.08 0.69 0.52 0.12 0.25 0.41 0.09 0.63-0.12 0.18-0.1 0.32-0.1 0.55q0 0.02 0.01 0.03c0.03 0.17 0.19 0.3 0.29 0.43 0.22 0.29 0.53 0.5 0.66 0.86 0.05 0.16 0.02 0.39 0.02 0.55q0.01 0.21 0.06 0.41c0.06 0.24 0.22 0.44 0.38 0.61 0.25 0.29 0.44 0.53 0.55 0.91 0.08 0.27 0.18 0.49 0.36 0.7 0.21 0.22 0.47 0.39 0.69 0.61 0.26 0.26 0.38 0.61 0.52 0.95 0.24 0.55 0.87 0.8 1.04 1.4q0.08 0.26 0.1 0.54c0.01 0.12-0.03 0.23 0 0.34 0.01 0.1 0.09 0.29 0.24 0.24q0.17-0.06 0.18-0.26c0.01-0.12 0.13-0.51 0.27-0.26 0.05 0.08 0.06 0.19 0.09 0.28 0.03 0.08 0.08 0.18 0.18 0.18q0.07 0 0.11-0.04 0.08-0.07 0.16-0.15c0.07-0.06 0.23-0.04 0.3 0.03q0.01 0.04 0.05 0.08 0.01 0.02 0.04 0.05c0.07 0.07 0.17 0.17 0.17 0.24q0 0.04 0.04 0.06 0 0 0.01 0.01c0.04 0.06 0.15 0.09 0.21 0.12 0.24 0.13 0.45 0.3 0.66 0.46 0.34 0.24 0.46 0.67 0.75 0.95 0.3 0.3 0.74 0.37 1.13 0.51 0.51 0.18 0.82 0.56 1.18 0.96 0.67 0.72 1.69 1.16 2.57 1.57 0.45 0.21 0.94 0.24 1.39 0.43 0.23 0.1 0.52 0.3 0.6 0.55 0.02 0.06 0.1 0.18 0.15 0.26q0 0.01 0 0.02c-0.05 0.32 0.08 0.64 0.08 0.96 0 0.38-0.06 0.76-0.03 1.15 0.03 0.35-0.07 0.7-0.05 1.06 0 0.22 0.06 0.42 0 0.63-0.06 0.21-0.2 0.42-0.29 0.62-0.14 0.26-0.26 0.51-0.28 0.82-0.01 0.34 0.18 0.69 0.33 0.99 0.21 0.43 0.52 0.78 0.43 1.28-0.07 0.39 0.1 0.78 0.01 1.16-0.04 0.19-0.21 0.32-0.32 0.47-0.1 0.14-0.13 0.31-0.15 0.47-0.06 0.41-0.11 0.81-0.08 1.22 0.03 0.32 0.03 0.63 0.15 0.92 0.12 0.32 0.46 0.51 0.58 0.83 0.22 0.53-0.27 0.61-0.64 0.71-0.41 0.1-0.74 0.33-1.18 0.33-0.39 0-0.83 0.12-0.82 0.58 0 0.51 0.04 0.97 0.27 1.45 0.27 0.55 0.73 1.02 0.87 1.63 0.08 0.37 0.04 0.86-0.31 1.07-0.27 0.16-0.58 0.23-0.87 0.34-0.42 0.16-0.59 0.44-0.57 0.88 0.02 0.38 0.24 0.56 0.6 0.67 0.21 0.07 0.43 0.06 0.64 0.07 0.49 0.02 0.49 0.45 0.6 0.8 0.06 0.16 0.22 0.26 0.37 0.32 0.36 0.15 0.61 0.37 0.5 0.8-0.07 0.26-0.27 0.52-0.36 0.79-0.09 0.24-0.11 0.5-0.13 0.76q-0.01 0.51-0.04 1.02-0.01 0.22-0.09 0.43c-0.13 0.28-0.45-0.23-0.51-0.34-0.18-0.28-0.36-0.45-0.64-0.62-0.25-0.15-0.27-0.52 0.04-0.58q0.12-0.04 0.18-0.16c0.05-0.13-0.06-0.19-0.18-0.22q-0.13-0.03-0.27-0.02c-0.06 0-0.2 0.02-0.25-0.02-0.06-0.05-0.09-0.1-0.15-0.15-0.14-0.07-0.23 0.08-0.27 0.18q-0.02 0.08-0.04 0.16c-0.03 0.15-0.22 0.1-0.27 0-0.08-0.17-0.12-0.34-0.22-0.5-0.16-0.24-0.42-0.37-0.65-0.51-0.43-0.24-0.81-0.55-1.21-0.83-0.8-0.55-1.69-0.99-2.57-1.39-0.38-0.17-0.75-0.38-1.14-0.53-0.41-0.15-0.86-0.12-1.28-0.27-0.21-0.08-0.44-0.16-0.63-0.3-0.2-0.17-0.1-0.29-0.1-0.49q0-0.25-0.23-0.18c-0.08 0.03-0.31 0.04-0.36 0.12-0.07 0.14 0.02 0.43 0.03 0.58-0.07-0.01-0.12 0.08-0.06 0.12q0.02 0 0.03 0.01c-0.26 0-0.44-0.08-0.62-0.31q-0.14-0.22-0.29-0.43c-0.2-0.26-0.44-0.36-0.74-0.44-0.43-0.1-0.77-0.32-1.12-0.58-0.15-0.12-0.28-0.22-0.46-0.27-0.17-0.05-0.37-0.01-0.54-0.03-0.56-0.03-0.68-0.42-0.85-0.87-0.1-0.29-0.27-0.38-0.55-0.43-0.26-0.05-0.49-0.11-0.57-0.4-0.04-0.11-0.04-0.26-0.13-0.36-0.23-0.27-0.69-0.35-0.83-0.69-0.09-0.2-0.1-0.43-0.17-0.64q-0.1-0.27-0.17-0.55c-0.1-0.41-0.14-0.79-0.4-1.13-0.14-0.17-0.34-0.28-0.5-0.41-0.1-0.06-0.44-0.29-0.16-0.41 0.22-0.08 0.55-0.08 0.77 0.03 0.1 0.04 0.34 0.23 0.46 0.13 0.13-0.12 0.06-0.4 0.04-0.55-0.01-0.29-0.26-0.39-0.34-0.64-0.08-0.26 0.21-0.41 0.34-0.57q0.1-0.14 0.08-0.32c-0.02-0.21-0.04-0.4-0.03-0.61q0.03-0.27 0-0.55c-0.04-0.23-0.14-0.44-0.21-0.67-0.09-0.26 0-0.5 0.01-0.77 0-0.15-0.12-0.3-0.18-0.42-0.1-0.25 0.04-0.44 0.15-0.64 0.15-0.27-0.05-0.53-0.07-0.8q0-0.01-0.01-0.01v-0.01c-0.01-0.08-0.01-0.06-0.04-0.13q-0.01-0.04-0.06-0.04c-0.34 0-0.15-0.72-0.19-0.91-0.09-0.38-0.3-0.72-0.55-1.03q-0.37-0.47-0.89-0.78c-0.37-0.23-0.85 0.02-1.16-0.32-0.14-0.15-0.21-0.38-0.36-0.52q-0.23-0.24-0.46-0.47c-0.32-0.32-0.56-0.71-0.9-1.02q-0.51-0.46-0.95-0.98-0.09-0.1-0.16-0.2c-0.09-0.16 0-0.36 0.18-0.25 0.18 0.1 0.42 0.04 0.61 0.13 0.15 0.07 0.39 0.25 0.54 0.09 0.13-0.14 0.07-0.61 0.04-0.77-0.07-0.41-0.23-0.8-0.35-1.2-0.11-0.35-0.42-0.6-0.68-0.84-0.29-0.27-0.64-0.43-0.88-0.75-0.2-0.26-0.17-0.65-0.32-0.93-0.06-0.12-0.24-0.31-0.38-0.26-0.2 0.06 0.03 0.65-0.36 0.47-0.24-0.12-0.2-0.46-0.4-0.62-0.26-0.18-0.58-0.05-0.87-0.13-0.33-0.08-1.27-0.77-1.58-0.31q-0.07 0.13-0.1 0.27-0.07 0.23-0.33 0.27c-0.11-0.02-0.19-0.15-0.25-0.24-0.15-0.23-0.14-0.53-0.29-0.78-0.14-0.23-0.18-0.28-0.09-0.57q0-0.02 0-0.04c-0.03-0.18-0.02-0.32 0.02-0.49 0.04-0.26-0.02-0.46-0.12-0.68 0.03-0.01 0.04-0.07 0.01-0.09q-0.01-0.06-0.06-0.06c-0.44-0.06-0.8-0.43-1.01-0.79-0.17-0.32-0.4-0.54-0.75-0.65q-0.73-0.22-0.89-0.97c-0.04-0.22-0.04-0.45-0.08-0.66-0.04-0.22-0.14-0.43-0.25-0.62-0.16-0.29-0.4-0.57-0.66-0.77-0.15-0.12-0.34-0.17-0.5-0.26-0.19-0.11-0.2-0.34-0.38-0.45-0.3-0.19-0.69-0.12-1.03-0.19-0.48-0.11-0.52-0.65-0.88-0.9-0.38-0.28-0.83-0.4-0.99-0.89-0.12-0.4-0.34-0.73-0.56-1.08-0.25-0.39-0.34-0.86-0.31-1.32 0.02-0.26 0.02-0.69-0.25-0.85-0.16-0.1-0.49-0.19-0.43-0.47 0.04-0.15 0.17-0.19 0.21-0.34 0.08-0.28-0.28-0.42-0.44-0.56-0.07-0.06-0.03-0.25-0.02-0.35 0.01-0.06-0.05-0.16-0.07-0.22-0.07-0.15-0.19-0.29-0.27-0.43-0.15-0.25-0.2-0.6-0.46-0.76-0.21-0.13-0.54-0.2-0.77-0.06q-0.07 0.05-0.12 0.12c-0.11 0.15-0.31 0.13-0.46 0.05-0.17-0.07-0.3-0.23-0.42-0.35-0.15-0.16-0.38-0.31-0.61-0.21-0.11 0.05-0.29 0.12-0.36 0.24-0.13 0.23-0.26 0.48-0.53 0.54-0.27 0.08-0.65 0.03-0.86-0.17-0.12-0.11-0.2-0.27-0.31-0.4-0.18-0.22-0.4-0.33-0.69-0.26-0.28 0.06-0.43 0.38-0.6 0.57-0.27 0.29-0.57 0.09-0.83-0.1-0.1-0.08-0.26-0.03-0.37-0.02q-0.06 0-0.06 0.06-0.03 0.37-0.13 0.72-0.17 0.64-0.76 0.38c-0.38-0.18-0.66-0.58-0.9-0.9-0.3-0.38-0.58-0.78-0.89-1.15-0.28-0.34-0.55-0.71-0.85-1.04-0.29-0.31-0.66-0.51-0.95-0.82q-0.47-0.53-0.84-1.12c-0.2-0.34-0.36-0.72-0.66-0.97-0.15-0.14-0.55-0.41-0.32-0.66 0.07-0.07 0.16-0.1 0.23-0.18 0.18-0.25 0.01-0.6-0.09-0.86-0.28-0.72-1.1-1.11-1.49-1.77-0.09-0.13-0.24-0.53 0.14-0.56 0.12-0.01 0.25 0.03 0.36 0.07 0.14 0.04 0.29 0.12 0.43 0.12 0.12 0 0.32-0.11 0.22-0.26-0.18-0.27-0.2-0.63-0.42-0.89q-0.1-0.11-0.26-0.09c-0.42 0.06-0.64-0.25-0.64-0.64 0-0.22 0.15-1.43-0.33-1.35-0.06 0.01-0.12 0.09-0.14 0.13-0.15 0.21-0.26 0.27-0.52 0.23q-0.27-0.06-0.53-0.12c-0.07-0.02-0.36-0.11-0.37-0.11q-0.01-0.05-0.05-0.06-0.12-0.01-0.23-0.08h-0.01c-0.18-0.1-0.39-0.04-0.52 0.11-0.19 0.21 0.04 0.52 0.16 0.69 0.16 0.25 0.05 0.4-0.02 0.64-0.05 0.16 0.05 0.34-0.13 0.46-0.48 0.31-0.82 0.03-1.2-0.25-0.18-0.14-0.38-0.23-0.59-0.13-0.07 0.03-0.12 0.12-0.14 0.19q-0.03 0.09-0.05 0.19c-0.05 0.24-0.32 0.22-0.51 0.18-0.2-0.06-0.39-0.16-0.59-0.22-0.23-0.06-0.52-0.01-0.68-0.24-0.08-0.12-0.09-0.29-0.2-0.4-0.14-0.13-0.28-0.17-0.47-0.2-0.42-0.06-0.48-0.48-0.68-0.78q-0.09-0.13-0.22-0.21-0.34-0.19-0.67-0.38-0.27-0.15-0.49-0.35c-0.12-0.11-0.15-0.38 0.01-0.47q0.04-0.02 0.08-0.07 0.19-0.31-0.12-0.52c-0.37-0.24-0.79-0.42-1.14-0.71q-0.22-0.21-0.44-0.44c-0.16-0.14-0.35-0.26-0.5-0.41-0.18-0.19-0.34-0.48-0.36-0.74-0.03-0.35 0.32-0.34 0.5-0.48 0.25-0.17 0.36-0.47 0.58-0.68 0.19-0.18 0.61-0.14 0.87-0.16 0.3-0.01 0.69 0.11 0.97 0.2 0.3 0.1 0.6 0.12 0.88 0.28q0.44 0.21 0.88 0.43 0.83 0.45 1.69 0.85c0.22 0.1 0.46 0.14 0.7 0.21 0.33 0.1 0.64 0.3 0.94 0.46q0.33 0.17 0.68 0.24c0.33 0.06 0.59 0.11 0.88 0.26 0.17 0.09 0.38 0.04 0.55 0.02 0.31-0.05 0.67 0.1 0.97 0.17 0.36 0.08 0.65 0.19 0.86 0.49 0.14 0.2 0.25 0.42 0.43 0.59q0.17 0.17 0.4 0.22c0.1 0.03 0.22-0.03 0.32-0.03q0.04 0 0.06-0.03 0-0.01 0-0.02 0.04-0.01 0.05-0.04 0.06 0.02 0.08-0.04c0.05-0.28 0.09-0.43-0.1-0.66-0.12-0.15-0.26-0.39-0.04-0.51 0.12-0.06 0.32-0.15 0.39-0.28 0.13-0.24 0.03-0.51-0.1-0.73q-0.12-0.19-0.28-0.34c-0.19-0.19-0.34-0.42-0.48-0.64-0.19-0.32-0.38-0.64-0.64-0.91-0.33-0.35-0.6-0.76-0.73-1.23-0.12-0.43-0.09-0.99 0.03-1.41 0.05-0.19 0.14-0.36 0.19-0.56 0.05-0.25 0.09-0.5 0.21-0.73 0.27-0.52 0.79-0.25 1.21-0.2 0.23 0.03 0.46 0.01 0.69 0.05 0.23 0.04 0.47 0.18 0.69 0.27 0.2 0.08 0.4 0.12 0.59 0.24 0.16 0.11 0.29 0.24 0.46 0.33 0.47 0.24 0.92 0.43 1.23 0.87 0.45 0.63 0.22 1.5 0.27 2.21 0.03 0.44 0.29 1.04 0.84 0.89 0.16-0.04 0.21-0.26 0.17-0.4-0.04-0.15-0.12-0.26-0.21-0.39-0.18-0.23-0.19-0.57-0.2-0.85 0-0.23 0.04-0.45 0.03-0.68 0-0.2-0.06-0.4-0.11-0.59-0.11-0.48-0.21-1.11-0.13-1.6 0.05-0.33 0.35-0.57 0.47-0.88q0.11-0.34 0.11-0.69c0-0.17-0.05-0.32-0.19-0.42-0.04-0.04-0.14-0.05-0.19-0.04q-0.09 0.05-0.16 0.1c-0.13 0.07-0.23 0.07-0.38 0.07q-0.2 0.02-0.38 0.12c-0.25 0.12-0.54 0.11-0.81 0.1-0.41-0.02-0.75-0.09-1.16 0-0.42 0.1-1.06 0.15-1.45-0.08-0.45-0.27-0.81-0.64-0.81-1.2-0.01-0.52 0.45-1.26-0.05-1.69-0.52-0.46-1.05 0.62-1.34 0.89-0.38 0.36-0.96 0.37-1.42 0.58-0.34 0.15-0.63 0.43-0.76 0.78-0.14 0.35 0.1 0.69 0.36 0.89 0.37 0.3 0.85 0.26 1.3 0.29 0.28 0.01 0.56 0 0.84 0.04 0.49 0.07 0.13 0.63 0.02 0.85-0.11 0.23-0.19 0.44-0.36 0.64q-0.24 0.27-0.49 0.52c-0.15 0.15-0.35 0.22-0.49 0.37-0.18 0.17-0.32 0.37-0.5 0.54q-0.24 0.23-0.56 0.28c-0.19 0.03-0.32 0.19-0.51 0.21q-0.04 0.01-0.04 0.05-0.03 0.01-0.04 0.03h-0.05q-0.15 0.13-0.31 0.24c-0.21 0.11-0.46 0.11-0.67 0.2-0.18 0.07-0.32 0.23-0.51 0.29-0.2 0.08-0.43 0.11-0.64 0.17q-0.35 0.11-0.72 0.17c-0.51 0.06-1.01-0.14-1.49-0.3-0.5-0.17-0.88-0.37-1.26-0.75-0.26-0.25-0.48-0.61-0.82-0.76-0.21-0.09-0.56 0.03-0.75 0.12q-0.22 0.13-0.44 0.28c-0.21 0.13-0.68 0.01-0.92-0.03-0.42-0.06-0.71-0.26-1.05-0.5q-0.14-0.1-0.32-0.11-0.33-0.04-0.67-0.03c-0.5 0.02-0.9 0.36-0.67 0.85 0.29 0.65 1 1.03 1.49 1.52 0.37 0.38 0.62 0.94-0.02 1.2-0.15 0.07-0.31 0.08-0.46 0.12-0.1 0.03-0.18 0.11-0.29 0.14q-0.01 0-0.02 0h-0.12c-0.18-0.12-0.4-0.46-0.49-0.57q-0.2-0.25-0.4-0.52c-0.16-0.2-0.38-0.37-0.57-0.56q-1.1-1.08-2.05-2.31c-0.27-0.35-0.48-0.74-0.75-1.09q-0.47-0.6-1.03-1.1c-0.15-0.14-0.33-0.22-0.46-0.39-0.14-0.18-0.09-0.52-0.05-0.73 0.06-0.46 0.39-0.9 0.61-1.3q0.28-0.48 0.26-1.02c-0.01-0.4-0.32-0.54-0.52-0.85-0.24-0.38-0.2-0.91-0.26-1.34q-0.11-0.82-0.11-1.65-0.01-0.68 0.04-1.38 0.03-0.27 0.06-0.55c0.01-0.14-0.02-0.22 0.17-0.23q0.21 0 0.41 0c0.31 0 0.55-0.11 0.79-0.29 0.36-0.29 0.77-0.51 1.14-0.79q0.26-0.2 0.54-0.38c0.14-0.07 0.26-0.12 0.36-0.23 0.2-0.2 0.2-0.65 0.18-0.91-0.03-0.49 0.61-0.61 0.97-0.79q0.32-0.16 0.68-0.25c0.3-0.07 0.56 0.07 0.79 0.24 0.31 0.22 0.6 0.48 0.93 0.7 0.31 0.2 0.61 0.21 0.96 0.27 0.43 0.06 0.95 0.01 0.77-0.56-0.07-0.22-0.39-0.41-0.57-0.53q-0.23-0.13-0.48-0.23c-0.33-0.16-0.34-0.43-0.36-0.75q-0.04-0.59-0.13-1.18c-0.09-0.54 0.2-0.97 0.45-1.44q0.11-0.24 0.26-0.47c0.13-0.21 0.33-0.31 0.52-0.45 0.17-0.12 0.31-0.26 0.47-0.37 0.21-0.13 0.47-0.12 0.68-0.25 0.19-0.1 0.34-0.26 0.55-0.33 0.08-0.03 0.21-0.07 0.28-0.14 0.21-0.25 0.17-0.64 0.17-0.94 0-0.45 0.07-0.85-0.13-1.27-0.12-0.23-0.3-0.44-0.45-0.66q-0.29-0.42-0.52-0.86c-0.11-0.21-0.3-0.37-0.42-0.58-0.21-0.37-0.01-0.76 0.29-1.02 0.17-0.14 0.38-0.23 0.53-0.39 0.14-0.14 0.19-0.37 0.24-0.56 0.12-0.49-0.2-0.84-0.25-1.32-0.04-0.39-0.12-0.6-0.51-0.72-0.51-0.16-1.03-0.27-1.54-0.43q-0.45-0.13-0.92-0.2c-0.1-0.02-0.77-0.21-0.77-0.24q-0.01-0.07-0.07-0.07h-0.04c-0.03-0.09-0.11-0.16-0.2-0.17q-0.01-0.02-0.03-0.03c-0.12-0.09-0.12-0.13-0.15-0.28-0.08-0.35-0.4-0.69-0.6-0.97-0.56-0.8-0.92-1.73-1.02-2.69-0.09-0.94-0.15-1.9-0.09-2.84 0.05-0.83 0.25-1.72-0.02-2.53q-0.19-0.51-0.58-0.9c-0.35-0.37-0.26-0.91-0.18-1.37 0.04-0.22 0.01-0.44 0.05-0.66 0.02-0.17 0.07-0.23 0.06-0.43-0.02-0.21-0.05-0.39 0.01-0.6 0.07-0.22 0.26-0.4 0.42-0.54q0.46-0.44 0.95-0.81 0.39-0.29 0.51-0.74c0.12-0.41-0.02-0.82 0.39-1.09 0.11-0.07 0.23-0.19 0.36-0.25 0.04-0.02 0.2-0.18 0.24-0.18q0.05 0 0.06-0.04 0.03-0.01 0.05-0.04 0.04-0.02 0.05-0.06v-0.09h-0.01c0-0.08-0.05-0.14-0.09-0.21-0.09-0.17-0.12-0.38-0.17-0.57-0.04-0.21-0.15-0.41-0.23-0.61q-0.14-0.37-0.25-0.74c-0.12-0.4-0.21-0.84-0.17-1.25 0.06-0.48-0.05-1.02-0.07-1.51q-0.01-0.7 0.03-1.41c0.03-0.53 0.03-1.03 0.14-1.57 0.22-1 0.57-1.92 1.06-2.82 0.47-0.88 0.82-1.8 1.27-2.68q0.15-0.26 0.27-0.53c0.09-0.25 0.16-0.54 0.39-0.71 0.14-0.1 0.42-0.11 0.58-0.14q0.43-0.08 0.85-0.09 0.49 0 0.97-0.06c0.43-0.04 0.84 0.01 1.25-0.08 0.44-0.11 0.94-0.03 1.39-0.07 0.43-0.03 0.81-0.25 1.21-0.39q0.49-0.17 1-0.29 0.22-0.05 0.44-0.1c0.16-0.04 0.33 0 0.49-0.04 0.31-0.05 0.61-0.16 0.92-0.21 0.3-0.04 0.59-0.08 0.86-0.2 0.11-0.05 0.14-0.18 0.13-0.29-0.05-0.26-0.04-0.52-0.09-0.77-0.16-0.73-0.47-1.4-0.51-2.14-0.07-1.42-0.08-2.85-0.09-4.27q0.01-0.45-0.05-0.9c-0.07-0.38-0.18-0.75-0.15-1.13 0.02-0.34-0.02-0.67-0.03-1-0.01-0.1-0.07-0.39 0-0.46q0.03-0.04 0.02-0.09v-0.05q0-0.01-0.01-0.02c0-0.18 0.06-0.37 0.04-0.56q-0.03-0.32 0.03-0.63 0.13-0.74 0.28-1.47c0.11-0.45 0.15-0.91 0.25-1.37 0.1-0.42 0.11-0.83 0.17-1.26 0.08-0.49 0.41-0.76 0.78-1.04 0.35-0.26 0.67-0.57 1-0.85 0.3-0.27 0.6-0.61 0.93-0.84 0.14-0.09 0.48-0.1 0.66-0.12q0.22-0.02 0.45-0.05c0.14-0.02 0.41-0.04 0.47-0.21 0.05-0.11 0.04-0.24 0.03-0.37-0.02-0.21 0.01-0.43 0.01-0.65-0.04-0.76-0.85-1.07-1.14-1.7-0.09-0.21-0.25-0.38-0.32-0.6-0.07-0.18-0.08-0.39-0.12-0.59-0.13-0.51 0.54-0.67 0.87-0.86 0.8-0.45 1.62-0.88 2.4-1.35q1.2-0.73 2.42-1.43c0.85-0.5 1.68-1.03 2.55-1.49q0.62-0.32 1.24-0.62c0.43-0.19 0.78-0.51 1.21-0.68q0.61-0.23 1.22-0.48 0.31-0.15 0.63-0.29c0.12-0.05 0.21-0.14 0.34-0.16q0.04-0.01 0.04-0.05 0.08 0.03 0.09-0.05v-0.09q0-0.03-0.02-0.04c-0.07-0.38-0.28-0.73-0.42-1.08q-0.29-0.73-0.58-1.46-0.05-0.12-0.09-0.25c-0.05-0.18 0.02-0.16 0.13-0.21 0.18-0.08 0.34-0.19 0.53-0.24 0.4-0.1 0.8-0.2 1.17-0.37 0.2-0.08 0.45-0.14 0.66-0.16 0.23-0.02 0.41 0.19 0.6 0.26 0.33 0.13 0.78 0.24 1.12 0.14 0.48-0.13 0.89-0.36 1.3 0.06 0.31 0.33 0.5 0.72 0.74 1.09 0.15 0.23 0.3 0.52 0.57 0.64q0.66 0.33 1.3 0.7c0.76 0.42 0.4 1.36 0.13 1.96-0.15 0.32-0.24 0.59-0.2 0.94 0.04 0.43 0.22 0.89 0.35 1.3 0.23 0.72 0.75 1.23 1.43 1.57 0.4 0.2 0.89 0.42 0.9 0.94 0.02 0.34-0.01 0.67 0.2 0.97 0.17 0.23 0.54 0.16 0.75 0.38 0.08 0.09 0.14 0.1 0.26 0.11q0.14 0.02 0.27 0c0.15-0.01 0.3 0.05 0.46 0.08 0.7 0.13 0.98-0.62 1.34-1.07 0.26-0.33 0.45-0.69 0.7-1.03 0.1-0.14 0.26-0.32 0.32-0.48 0.08-0.2 0.05-0.38 0.05-0.58-0.01-0.21-0.04-0.52 0.04-0.72 0.08-0.17 0.31-0.34 0.46-0.43 0.25-0.15 0.51 0.07 0.7 0.2q0.18 0.12 0.38 0.08 0.15-0.04 0.29-0.1c0.11-0.04 0.26-0.03 0.38-0.03 0.2 0 0.35 0 0.54-0.06 0.41-0.13 0.82 0.04 1.24-0.03 0.23-0.05 0.27-0.3 0.29-0.49q0.04-0.33 0.12-0.65c0.05-0.24 0.08-0.51 0.14-0.76 0.08-0.31 0.01-0.64-0.12-0.94-0.18-0.41-0.35-0.78-0.65-1.13-0.12-0.14-0.22-0.31-0.38-0.4-0.2-0.13-0.44-0.17-0.65-0.28q-0.32-0.16-0.64-0.31c-0.26-0.12-0.42-0.47-0.54-0.72-0.19-0.38-0.32-0.81-0.71-1.03-0.41-0.22-1.04-0.14-1.16-0.69-0.09-0.42 0.02-0.9-0.01-1.33-0.05-0.55-0.06-1.09-0.11-1.63-0.1-0.96-0.67-1.79-0.67-2.76q-0.01-0.06-0.05-0.06c-0.02-0.17-0.12-0.34-0.21-0.46-0.31-0.42-0.37-0.86-0.42-1.35-0.04-0.31-0.12-0.6-0.35-0.82-0.28-0.28-0.71-0.43-1.06-0.58q-0.63-0.26-1.24-0.58c-0.39-0.21-0.88-0.45-1.14-0.82-0.25-0.35-0.18-0.97-0.18-1.38q0-0.64-0.22-1.24c-0.23-0.64-0.7-1.22-1.18-1.69-0.12-0.12-0.32-0.29-0.51-0.24-0.32 0.07-0.36 0.55-0.66 0.59-0.14 0.02-0.33-0.04-0.47-0.04-0.31 0-0.42-0.25-0.49-0.5-0.08-0.3-0.05-0.54 0.28-0.64 0.15-0.04 0.3 0.01 0.44-0.06 0.7-0.37 0.97-1.13 1.45-1.7 0.09-0.11 0.48-0.2 0.6-0.26q0.4-0.15 0.83-0.2c0.32-0.04 0.61-0.2 0.8-0.46 0.28-0.35 0.42-0.81 0.63-1.2q0.15-0.28 0.29-0.57c0-0.01 0.16-0.18 0.12-0.18q0.03-0.01 0.04-0.05 0 0.01 0 0.02 0.04-0.01 0.04-0.04 0.01-0.02 0.01-0.04 0-0.01 0-0.03 0.04-0.02 0.08-0.05 0.03-0.02 0.05-0.04 0.03 0 0.06-0.01c0.16-0.12 0.4-0.08 0.58-0.04 0.28 0.06 0.54 0.19 0.68 0.43 0.11 0.17 0.16 0.35 0.29 0.5 0.17 0.19 0.48 0.19 0.72 0.21 0.49 0.02 1.17 0.11 1.22 0.73 0.03 0.34 0.06 0.74 0.19 1.04 0.14 0.3 0.95 0.77 0.41 1.09-0.15 0.09-0.36 0.11-0.38 0.32-0.02 0.19 0.15 0.48 0.31 0.57 0.56 0.31 1.24-0.25 1.75-0.39q0.69-0.21 1.4-0.31c0.46-0.06 0.87-0.19 1.3-0.34q0.63-0.2 1.28-0.33c0.49-0.11 1.03-0.05 1.54-0.07q0.58-0.02 1.11-0.27c0.22-0.1 0.38-0.28 0.62-0.35 0.24-0.09 0.55-0.08 0.81-0.09 0.41-0.02 0.84 0.05 1.26 0.06 0.53 0.01 0.87 0.21 1.29 0.52 0.33 0.26 0.73 0.36 1.13 0.46 0.45 0.1 1 0.14 1.27 0.53 0.27 0.37 0.38 0.83 0.52 1.26q0.23 0.71 0.47 1.41c0.29 0.8 0.52 1.69 0.99 2.4 0.19 0.27 0.45 0.47 0.74 0.64q0.68 0.39 1.35 0.8 0.62 0.37 1.26 0.72c0.43 0.23 0.88 0.42 1.28 0.71q0.59 0.41 1.02 1c0.25 0.35 0.44 0.74 0.69 1.09 0.49 0.7 1.28 0.85 2.04 1.09 0.59 0.19 1.14 0.44 1.71 0.67 0.27 0.1 0.5 0.2 0.78 0.27 0.25 0.05 0.4 0.22 0.61 0.31q0.02 0 0.02 0 0.42 0.22 0.88 0.31 0.71 0.19 1.42 0.34c0.93 0.2 1.8 0.61 2.68 0.95 0.47 0.18 0.8 0.48 1.13 0.83q0.53 0.56 1.06 1.12c0.3 0.32 0.63 0.6 0.92 0.92 0.32 0.35 0.46 0.86 0.7 1.27 0.47 0.82 0.8 1.68 1.2 2.54 0.38 0.84 0.86 1.56 1.46 2.25 0.66 0.76 0.7 1.87 0.87 2.82 0.09 0.45 0.23 0.87 0.37 1.31 0.11 0.35 0.13 0.72 0.29 1.05 0.09 0.19 0.35 0.32 0.51 0.44 0.22 0.17 0.47 0.26 0.72 0.38 0.48 0.24 0.51 0.95 0.87 1.31 0.37 0.35 0.85 0.52 1.31 0.69 0.6 0.2 1.19 0.44 1.67 0.84 0.5 0.4 0.69 0.95 0.95 1.51 0.26 0.58 0.49 1.18 0.76 1.76 0.19 0.43 0.46 0.82 0.86 1.07 0.52 0.34 1.18 0.4 1.71 0.7 0.03 0.01 0.09 0 0.1-0.04q0.01 0 0.01 0c0.33-0.04 0.62-0.21 0.94-0.3 0.17-0.05 0.35-0.02 0.52-0.05 0.14-0.03 0.16-0.09 0.32-0.05q0.15 0.05 0.28 0.13c0.52 0.32 0.81 1.13 1.53 0.99 0.19-0.04 0.55-0.12 0.66-0.3 0.15-0.26 0.08-0.59 0.28-0.82 0.18-0.23 0.31-0.23 0.59-0.22 0.19 0.01 0.38-0.05 0.57-0.06q0.23-0.03 0.44-0.13 0.13-0.06 0.26-0.1c0.24-0.07 0.31 0.36 0.35 0.49q0.18 0.67 0.4 1.34 0.25 0.67 0.48 1.34c0.15 0.46 0.27 0.93 0.29 1.42 0.02 0.47-0.11 0.91-0.21 1.35-0.18 0.76 0.65 1.21 1.1 1.62 0.12 0.1 0.27 0.17 0.4 0.26 0.3 0.18 0.3 0.49 0.32 0.8q0 0.21 0.1 0.37c0.03 0.05 0.2 0.18 0.2 0.21q0.01 0.04 0.05 0.06 0.01 0.04 0.06 0.04h0.03c0.39 0.14 0.92 0.31 1.24-0.05 0.12-0.14 0.16-0.36 0.4-0.37 0.15-0.01 0.34 0.06 0.48 0.1 0.26 0.07 0.31 0.2 0.31 0.46q-0.02 0.26 0.02 0.51c0.07 0.56 0.36 0.76 0.9 0.82 0.2 0.02 0.41 0.06 0.57-0.1 0.19-0.16 0.29-0.39 0.4-0.62 0.07-0.14 0.15-0.28 0.29-0.38 0.15-0.1 0.37-0.08 0.54-0.08 0.39 0.01 0.76-0.05 1.14-0.07 0.41-0.03 0.82 0.08 1.23 0.1 0.39 0.02 0.78-0.08 1.17-0.1q0.59-0.02 1.17-0.04c0.32-0.02 0.65 0.02 0.96-0.09 0.28-0.1 0.5-0.42 0.72-0.61q0.24-0.19 0.51-0.34c0.27-0.13 0.45-0.05 0.68 0.05q0.01 0.04 0.05 0.05h0.03q0 0.01 0.02 0.02c0.3 0.23 0.35 0.69 0.51 1.02q0.17 0.34 0.31 0.7c0.09 0.24 0.13 0.49 0.22 0.73 0.3 0.8 0.83 1.47 1.31 2.17 0.19 0.26 0.37 0.52 0.64 0.71 0.33 0.24 0.74 0.3 1.12 0.44 0.43 0.16 0.73 0.44 1.04 0.78q0.47 0.5 0.92 1.03 0.84 0.98 1.94 1.65c0.39 0.23 0.79 0.4 1.19 0.58q0.67 0.31 1.29 0.71c0.39 0.24 0.77 0.5 1.17 0.73 0.46 0.27 0.89 0.54 1.28 0.92q0.47 0.44 0.9 0.95c0.2 0.25 0.46 0.7 0.79 0.82 0.37 0.13 0.73-0.05 1.09-0.15 0.51-0.16 1.18 0.23 1.62 0.42 0.59 0.24 1.18 0.47 1.75 0.74q0.82 0.4 1.64 0.83 0.77 0.4 1.57 0.75c0.49 0.21 0.94 0.39 1.47 0.36q0.29 0 0.59-0.04c0.33-0.06 0.55-0.06 0.67 0.32 0.06 0.19 0.12 0.49 0.29 0.64q0.13 0.07 0.26 0.13 0.13 0.04 0.27 0.07 0.24 0.04 0.48 0.09c0.4 0.09 0.65 0.3 0.8 0.69 0.09 0.24 0.17 0.66 0.37 0.83 0.28 0.25 0.65 0.37 0.95 0.57 0.33 0.22 0.79 0.31 1.14 0.46 0.37 0.16 0.75 0.31 1.03 0.59 0.26 0.26 0.29 0.71 0.35 1.05 0.08 0.4 0.13 0.82 0.26 1.22 0.3 0.83 0.23 1.76-0.01 2.6-0.21 0.7-0.66 1.46-0.55 2.21zm-119.55 63.47q-0.06-0.1-0.14-0.18c-0.09-0.09-0.22-0.09-0.3-0.19-0.06-0.08-0.29-0.07-0.4-0.08q-0.03 0-0.05 0.04-0.04 0.06-0.04 0.1-0.02 0-0.03 0.01-0.01 0.01-0.01 0-0.02 0.02-0.02 0.05v0.21q0.01 0.06 0.07 0.06c0.01 0-0.01 0 0.02 0.07 0.04 0.07 0.13 0.13 0.19 0.18q0.24 0.18 0.38 0.45c0.09 0.18 0.35 0.32 0.48 0.07 0.14-0.27-0.02-0.56-0.15-0.79zm0.07 0.64c-0.02 0.15-0.2 0.18-0.27 0.06q-0.07-0.13-0.14-0.25c-0.12-0.18-0.43-0.29-0.48-0.51q0-0.03-0.04-0.04v-0.09h0.02c0.06 0 0.08-0.06 0.06-0.09 0.07-0.04 0.24-0.02 0.27 0.02 0.04 0.05 0.12 0.09 0.18 0.12 0.22 0.1 0.34 0.38 0.39 0.6q0.03 0.09 0.01 0.18z"/>
		</g>
	</g>
	<g>
		<g id="Clip-Path" clip-path="url(#cp2)">
			<g>
				<g>
					<g>
						<g>
							<path class="s0" d="m60.52 81.1v85.96q2.23-15.97 6.38-29.08 4.16-13.1 9.91-23.65 9.58-18.52 23-26.83 0.96-0.64 1.92-1.27 0.95-0.64 1.92-0.98 8.31-5.1 17.58-6.38 9.27-1.29 18.85 0.32 19.82 3.52 31.32 14.06 11.51 10.54 15.83 25.42 4.31 14.85 2.4 31.47-1.93 16.61-9.28 32.28-7.35 15.64-18.85 27.47-11.83 12.13-27.65 19.65-15.81 7.5-35.31 7.5-7.98 0-17.58-1.92-9.59-1.91-20.44-6.06v55.29q1.27 8.29 3.5 10.86 2.25 2.56 3.21 2.56l1.27 2.87-30.04 11.5v-203.56q0-15.98-2.88-20.29-2.87-4.31-4.48-4.31v-2.88zm0 116.96v28.44q20.13 8 38.34 8 16.93-0.64 29.39-8.79 12.48-8.15 20.46-22.86 6.08-10.54 9.44-25.23 3.35-14.7 3.19-30.35-0.17-15.67-4.17-29.42-3.98-13.75-12.94-22.68-8.29-8.31-18.37-10.86-10.07-2.56-20.92 2.86-6.09 3.2-11.04 8.33-4.94 5.11-9.42 11.48-7.98 11.83-13.1 26.54-5.11 14.69-7.67 29.71l-1.91 13.75q-0.96 9.89-0.96 21.08z"/>
						</g>
					</g>
				</g>
				<g>
					<g>
						<g>
							<path class="s0" d="m358.66 83.02v-2.23q1.94 0 6.88-1.12 4.95-1.13 10.54-5.11 5.6-4 9.44-12.94 3.83-8.95 3.83-24.62h22.38q-0.01 19.17-7.84 29.56-7.83 10.4-22.85 14.23h47.94v2.23h-27.79v92.35q0 5.75 0.62 13.75 0.64 7.99 2.71 16.13 2.08 8.15 6.08 14.39 4 6.24 10.71 8.46 9.27 2.88 17.25-1.75 8-4.64 14.23-12.62 6.23-8 9.42-15.02 1.91-4.48 3.83-9.44 1.91-4.95 3.21-10.38h2.87q-1.61 5.76-3.37 11.03-1.75 5.27-3.98 9.75-3.84 8.62-10.06 17.1-6.24 8.46-14.71 13.9-8.46 5.41-19 5.41-17.28 0-26.38-9.1-9.11-9.11-12.46-23.17-3.35-14.06-3.35-28.44v-72.85q0-8-5.44-13.75-5.44-5.75-14.71-5.75z"/>
						</g>
					</g>
				</g>
				<g>
					<g>
						<g>
							<path class="s0" d="m595.16 111.46q2.54 12.15 6.38 11.18l0.96 2.57-17.25 6.71-0.96 0.31-16.63 6.39v-2.87q3.52-2.23 4.8-7.19 1.29-4.95 1.29-9.44-1.3-10.85-5.29-20.6-3.99-9.75-14.52-11.02-17.59-2.56-27.03 3.52-9.42 6.06-12.93 16.94-3.51 10.85-4.15 22.66v76.71q0 15.65 3.02 20.13 3.04 4.48 4.34 4.48v2.87h-37.09v-2.87q1.6 0 4.65-4.48 3.04-4.48 3.04-20.13v-99.06q0-15.98-3.04-20.29-3.05-4.31-4.65-4.31v-2.88h29.73v30.35q3.52-13.75 13.42-22.68 9.91-8.96 31.31-8.96 18.23 0 27.96 8.96 9.75 8.93 12.64 23z"/>
						</g>
					</g>
				</g>
				<g>
					<g>
						<g>
							<path class="s0" d="m745.99 231.94v2.87h-29.4v-82.44q-2.23 14.38-5.44 26.21-3.19 11.82-7.35 21.09-4.15 8.62-10.38 17.1-6.23 8.46-14.54 13.9-8.31 5.41-18.85 5.41-17.59 0-26.54-9.1-8.94-9.11-12.3-23.17-3.35-14.06-3.35-28.44v-67.1q0-15.98-2.87-20.29-2.88-4.31-4.48-4.31v-2.88h29.73v94.58q0 5.75 0.62 13.75 0.64 7.99 2.73 16.13 2.08 8.15 6.06 14.39 4 6.24 10.71 8.46 9.27 2.88 17.25-1.75 8-4.64 14.23-12.62 6.23-8 9.44-15.02 7.01-15.35 11.16-37.71 4.17-22.37 4.17-52.73 0-15.98-2.87-20.29-2.88-4.31-4.48-4.31v-2.88h29.39v126.54q0 15.65 3.04 20.13 3.04 4.48 4.32 4.48z"/>
						</g>
					</g>
				</g>
				<g>
					<g>
						<g>
							<path class="s0" d="m866.14 138.31h-1.58q0.31-8-4.96-17.58-5.27-9.58-14.06-18.04-8.8-8.48-19.34-13.59-10.54-5.12-21.08-4.64-10.55 0.48-19.19 9.41-6.71 6.74-6.23 15.84 0.48 9.1 7.52 16.46 5.42 5.43 16.13 10.87 10.7 5.42 28.29 9.9 13.1 3.52 22.04 8.31 8.96 4.79 14.71 10.21 9.27 9.27 10.85 20.79 1.61 11.5-4.79 23-6.71 11.81-16.93 17.58-10.24 6.71-24.3 9.59-14.04 2.87-26.18 2.22-11.5-0.96-24.13-5.1-12.62-4.16-26.37-12.15l-2.57-1.6 7.69-35.48 2.54 0.65q-0.62 3.83 2.57 10.23 3.18 6.4 7.66 12.48 4.48 6.06 7.36 8.6 6.39 6.09 14.2 9.92 7.84 3.83 15.84 5.43 7.97 1.59 15.81 1.27 7.83-0.31 14.85-2.22 3.83-0.96 7.19-2.4 3.38-1.44 6.56-3.38 3.52-2.54 5.75-4.79 2.23-2.54 3.98-5.41 1.77-2.88 2.42-6.09 0.31-2.22 0.15-4.62-0.15-2.4-0.8-4.65-2.87-8.29-11.02-13.25-8.14-4.95-18.7-8.14-10.55-3.21-21.4-6.4-15.34-4.48-26.85-12.62-11.51-8.15-17.11-19-5.59-10.88-3.35-23.03 2.25-12.14 14.71-24.6 8.31-8.62 21.72-10.85 13.44-2.25 27.65 0.14 14.23 2.4 25.42 7.84 11.18 5.44 15.33 12.45z"/>
						</g>
					</g>
				</g>
			</g>
		</g>
	</g>
	<g id="T">
		<g>
			<g>
				<path class="s0" d="m296.77 287.81h-13.12v-3.42h30.19v3.42h-13.13v33.92h-3.94z"/>
			</g>
		</g>
	</g>
	<g id="R">
		<g>
			<g>
				<path class="s0" d="m380.57 321.73l-8.55-12q-1.43 0.17-2.97 0.16h-10.05v11.84h-3.93v-37.34h13.98q7.14 0 11.18 3.42 4.07 3.42 4.07 9.37-0.01 4.38-2.23 7.4-2.21 3.02-6.32 4.35l9.13 12.8zm-11.65-15.21q5.56 0 8.48-2.44 2.94-2.46 2.94-6.9 0-4.51-2.94-6.93-2.92-2.44-8.48-2.44h-9.91v18.71z"/>
			</g>
		</g>
	</g>
	<g id="A">
		<g>
			<g>
				<path class="s0" d="m451.97 311.75h-20.81l-4.48 9.98h-4.1l17.06-37.34h3.9l17.06 37.34h-4.15zm-1.44-3.19l-8.97-20.06-8.96 20.06z"/>
			</g>
		</g>
	</g>
	<g id="V">
		<g>
			<g>
				<path class="s0" d="m532.77 284.39l-16.54 37.34h-3.9l-16.52-37.34h4.25l14.31 32.42 14.4-32.42z"/>
			</g>
		</g>
	</g>
	<g id="E">
		<g>
			<g>
				<path class="s0" d="m600.28 318.31v3.42h-26.4v-37.34h25.61v3.42h-21.67v13.27h19.31v3.37h-19.31v13.86z"/>
			</g>
		</g>
	</g>
	<g id="L">
		<g>
			<g>
				<path class="s0" d="m644.49 284.39h3.94v33.92h20.92v3.42h-24.86z"/>
			</g>
		</g>
	</g>
</svg>